# Blender 5.2.0 LTS
# www.blender.org
mtllib alchemy_machine_right_upgrade.mtl
o cube
v 1.187500 2.187500 1.812500
v 1.187500 2.187500 1.750000
v 1.187500 2.125000 1.812500
v 1.187500 2.125000 1.750000
v 0.687500 2.187500 1.750000
v 0.687500 2.187500 1.812500
v 0.687500 2.125000 1.750000
v 0.687500 2.125000 1.812500
vn -0.0000 -0.0000 -1.0000
vn 1.0000 -0.0000 -0.0000
vn -0.0000 -0.0000 1.0000
vn -1.0000 -0.0000 -0.0000
vn -0.0000 1.0000 -0.0000
vn -0.0000 -1.0000 -0.0000
vt 0.000000 0.875000
vt 0.500000 0.875000
vt 0.500000 0.937500
vt 0.000000 0.937500
vt 0.375000 0.875000
vt 0.437500 0.875000
vt 0.437500 0.937500
vt 0.375000 0.937500
vt 0.062500 0.875000
vt 0.062500 0.937500
vt 0.500000 1.000000
vt 0.000000 1.000000
vt 0.000000 0.562500
vt 0.500000 0.562500
vt 0.500000 0.625000
vt 0.000000 0.625000
s 1
usemtl none
f 4/1/1 7/2/1 5/3/1 2/4/1
f 3/5/2 4/6/2 2/7/2 1/8/2
f 8/1/3 3/2/3 1/3/3 6/4/3
f 7/1/4 8/9/4 6/10/4 5/4/4
f 6/4/5 1/3/5 2/11/5 5/12/5
f 7/13/6 4/14/6 3/15/6 8/16/6
o cube.001
v 1.187500 1.875000 2.250000
v 1.187500 1.875000 1.875000
v 1.187500 1.812500 2.250000
v 1.187500 1.812500 1.875000
v 1.125000 1.875000 1.875000
v 1.125000 1.875000 2.250000
v 1.125000 1.812500 1.875000
v 1.125000 1.812500 2.250000
vn -0.0000 -0.0000 -1.0000
vn 1.0000 -0.0000 -0.0000
vn -0.0000 -0.0000 1.0000
vn -1.0000 -0.0000 -0.0000
vn -0.0000 1.0000 -0.0000
vn -0.0000 -1.0000 -0.0000
vt 0.000000 0.875000
vt 0.062500 0.875000
vt 0.062500 0.937500
vt 0.000000 0.937500
vt 0.437500 0.875000
vt 0.437500 0.937500
vt 0.125000 0.875000
vt 0.125000 0.937500
vt 0.375000 0.875000
vt 0.375000 0.937500
vt 0.062500 0.625000
vt 0.125000 0.625000
vt 0.125000 1.000000
vt 0.062500 1.000000
vt 0.062500 0.562500
vt 0.125000 0.562500
s 1
usemtl none
f 12/17/7 15/18/7 13/19/7 10/20/7
f 11/18/8 12/21/8 10/22/8 9/19/8
f 16/18/9 11/23/9 9/24/9 14/19/9
f 15/17/10 16/25/10 14/26/10 13/20/10
f 14/27/11 9/28/11 10/29/11 13/30/11
f 15/31/12 12/32/12 11/24/12 16/19/12
o cube.002
v 1.125000 1.875000 1.875000
v 1.125000 1.875000 1.812500
v 1.125000 1.812500 1.875000
v 1.125000 1.812500 1.812500
v 0.750000 1.875000 1.812500
v 0.750000 1.875000 1.875000
v 0.750000 1.812500 1.812500
v 0.750000 1.812500 1.875000
vn -0.0000 -0.0000 -1.0000
vn 1.0000 -0.0000 -0.0000
vn -0.0000 -0.0000 1.0000
vn -1.0000 -0.0000 -0.0000
vn -0.0000 1.0000 -0.0000
vn -0.0000 -1.0000 -0.0000
vt 0.000000 0.875000
vt 0.375000 0.875000
vt 0.375000 0.937500
vt 0.000000 0.937500
vt 0.437500 0.875000
vt 0.437500 0.937500
vt 0.062500 0.875000
vt 0.062500 0.937500
vt 0.375000 1.000000
vt 0.000000 1.000000
vt 0.000000 0.562500
vt 0.375000 0.562500
vt 0.375000 0.625000
vt 0.000000 0.625000
s 1
usemtl none
f 20/33/13 23/34/13 21/35/13 18/36/13
f 19/34/14 20/37/14 18/38/14 17/35/14
f 24/33/15 19/34/15 17/35/15 22/36/15
f 23/33/16 24/39/16 22/40/16 21/36/16
f 22/36/17 17/35/17 18/41/17 21/42/17
f 23/43/18 20/44/18 19/45/18 24/46/18
o cube.003
v 1.125000 1.875000 2.312500
v 1.125000 1.875000 2.250000
v 1.125000 1.812500 2.312500
v 1.125000 1.812500 2.250000
v 0.750000 1.875000 2.250000
v 0.750000 1.875000 2.312500
v 0.750000 1.812500 2.250000
v 0.750000 1.812500 2.312500
vn -0.0000 -0.0000 -1.0000
vn 1.0000 -0.0000 -0.0000
vn -0.0000 -0.0000 1.0000
vn -1.0000 -0.0000 -0.0000
vn -0.0000 1.0000 -0.0000
vn -0.0000 -1.0000 -0.0000
vt 0.000000 0.875000
vt 0.375000 0.875000
vt 0.375000 0.937500
vt 0.000000 0.937500
vt 0.437500 0.875000
vt 0.437500 0.937500
vt 0.062500 0.875000
vt 0.062500 0.937500
vt 0.375000 1.000000
vt 0.000000 1.000000
vt 0.000000 0.562500
vt 0.375000 0.562500
vt 0.375000 0.625000
vt 0.000000 0.625000
s 1
usemtl none
f 28/47/19 31/48/19 29/49/19 26/50/19
f 27/48/20 28/51/20 26/52/20 25/49/20
f 32/47/21 27/48/21 25/49/21 30/50/21
f 31/47/22 32/53/22 30/54/22 29/50/22
f 30/50/23 25/49/23 26/55/23 29/56/23
f 31/57/24 28/58/24 27/59/24 32/60/24
o cube.004
v 0.750000 1.875000 2.375000
v 0.750000 1.875000 2.250000
v 0.750000 0.000000 2.375000
v 0.750000 0.000000 2.250000
v 0.625000 1.875000 2.250000
v 0.625000 1.875000 2.375000
v 0.625000 0.000000 2.250000
v 0.625000 0.000000 2.375000
vn -0.0000 -0.0000 -1.0000
vn 1.0000 -0.0000 -0.0000
vn -0.0000 -0.0000 1.0000
vn -1.0000 -0.0000 -0.0000
vn -0.0000 1.0000 -0.0000
vn -0.0000 -1.0000 -0.0000
vt 0.000000 0.000000
vt 0.125000 0.000000
vt 0.125000 1.000000
vt 0.000000 1.000000
vt 0.000000 0.875000
vt 0.125000 0.875000
s 1
usemtl none
f 36/61/25 39/62/25 37/63/25 34/64/25
f 35/61/26 36/62/26 34/63/26 33/64/26
f 40/61/27 35/62/27 33/63/27 38/64/27
f 39/61/28 40/62/28 38/63/28 37/64/28
f 38/65/29 33/66/29 34/63/29 37/64/29
f 39/65/30 36/66/30 35/63/30 40/64/30
o cube.005
v 1.250000 1.875000 2.375000
v 1.250000 1.875000 2.250000
v 1.250000 0.000000 2.375000
v 1.250000 0.000000 2.250000
v 1.125000 1.875000 2.250000
v 1.125000 1.875000 2.375000
v 1.125000 0.000000 2.250000
v 1.125000 0.000000 2.375000
vn -0.0000 -0.0000 -1.0000
vn 1.0000 -0.0000 -0.0000
vn -0.0000 -0.0000 1.0000
vn -1.0000 -0.0000 -0.0000
vn -0.0000 1.0000 -0.0000
vn -0.0000 -1.0000 -0.0000
vt 0.000000 0.000000
vt 0.125000 0.000000
vt 0.125000 1.000000
vt 0.000000 1.000000
vt 0.000000 0.875000
vt 0.125000 0.875000
s 1
usemtl none
f 44/67/31 47/68/31 45/69/31 42/70/31
f 43/67/32 44/68/32 42/69/32 41/70/32
f 48/67/33 43/68/33 41/69/33 46/70/33
f 47/67/34 48/68/34 46/69/34 45/70/34
f 46/71/35 41/72/35 42/69/35 45/70/35
f 47/71/36 44/72/36 43/69/36 48/70/36
o cube.006
v 1.304496 2.183401 1.820145
v 1.300727 2.162025 1.697044
v 1.240368 1.819709 1.885263
v 1.236598 1.798333 1.762162
v 1.177626 2.183731 1.697044
v 1.181395 2.205107 1.820145
v 1.113497 1.820039 1.762162
v 1.117267 1.841415 1.885263
vn -0.0302 -0.1710 -0.9848
vn 0.9848 -0.1736 -0.0000
vn 0.0302 0.1710 0.9848
vn -0.9848 0.1736 -0.0000
vn 0.1710 0.9698 -0.1736
vn -0.1710 -0.9698 0.1736
vt 0.000000 0.000000
vt 0.125000 0.000000
vt 0.125000 0.375000
vt 0.000000 0.375000
vt 0.000000 0.875000
vt 0.125000 0.875000
vt 0.125000 1.000000
vt 0.000000 1.000000
s 1
usemtl none
f 52/73/37 55/74/37 53/75/37 50/76/37
f 51/73/38 52/74/38 50/75/38 49/76/38
f 56/73/39 51/74/39 49/75/39 54/76/39
f 55/73/40 56/74/40 54/75/40 53/76/40
f 54/77/41 49/78/41 50/79/41 53/80/41
f 55/77/42 52/78/42 51/79/42 56/80/42
o cube.007
v 1.296958 2.140649 2.426057
v 1.300727 2.162025 2.302956
v 1.232829 1.776956 2.360939
v 1.236598 1.798333 2.237838
v 1.177626 2.183731 2.302956
v 1.173857 2.162355 2.426057
v 1.113497 1.820039 2.237838
v 1.109728 1.798662 2.360939
vn 0.0302 0.1710 -0.9848
vn 0.9848 -0.1736 -0.0000
vn -0.0302 -0.1710 0.9848
vn -0.9848 0.1736 -0.0000
vn 0.1710 0.9698 0.1736
vn -0.1710 -0.9698 -0.1736
vt 0.000000 0.000000
vt 0.125000 0.000000
vt 0.125000 0.375000
vt 0.000000 0.375000
vt 0.000000 0.875000
vt 0.125000 0.875000
vt 0.125000 1.000000
vt 0.000000 1.000000
s 1
usemtl none
f 60/81/43 63/82/43 61/83/43 58/84/43
f 59/81/44 60/82/44 58/83/44 57/84/44
f 64/81/45 59/82/45 57/83/45 62/84/45
f 63/81/46 64/82/46 62/83/46 61/84/46
f 62/85/47 57/86/47 58/87/47 61/88/47
f 63/85/48 60/86/48 59/87/48 64/88/48
o cube.008
v 0.699244 2.184061 2.426057
v 0.695475 2.205437 2.302956
v 0.763373 1.820368 2.360939
v 0.759604 1.841745 2.237838
v 0.572374 2.183731 2.302956
v 0.576143 2.162355 2.426057
v 0.636503 1.820039 2.237838
v 0.640272 1.798662 2.360939
vn -0.0302 0.1710 -0.9848
vn 0.9848 0.1736 -0.0000
vn 0.0302 -0.1710 0.9848
vn -0.9848 -0.1736 -0.0000
vn -0.1710 0.9698 0.1737
vn 0.1710 -0.9698 -0.1736
vt 0.000000 0.000000
vt 0.125000 0.000000
vt 0.125000 0.375000
vt 0.000000 0.375000
vt 0.000000 0.875000
vt 0.125000 0.875000
vt 0.125000 1.000000
vt 0.000000 1.000000
s 1
usemtl none
f 68/89/49 71/90/49 69/91/49 66/92/49
f 67/89/50 68/90/50 66/91/50 65/92/50
f 72/89/51 67/90/51 65/91/51 70/92/51
f 71/89/52 72/90/52 70/91/52 69/92/52
f 70/93/53 65/94/53 66/95/53 69/96/53
f 71/93/54 68/94/54 67/95/54 72/96/54
o cube.009
v 0.691706 2.226813 1.820145
v 0.695475 2.205437 1.697044
v 0.755834 1.863121 1.885263
v 0.759604 1.841745 1.762162
v 0.572374 2.183731 1.697044
v 0.568605 2.205107 1.820145
v 0.636503 1.820039 1.762162
v 0.632733 1.841415 1.885263
vn 0.0302 -0.1710 -0.9848
vn 0.9848 0.1736 -0.0000
vn -0.0302 0.1710 0.9848
vn -0.9848 -0.1736 -0.0000
vn -0.1710 0.9698 -0.1736
vn 0.1710 -0.9698 0.1736
vt 0.000000 0.000000
vt 0.125000 0.000000
vt 0.125000 0.375000
vt 0.000000 0.375000
vt 0.000000 0.875000
vt 0.125000 0.875000
vt 0.125000 1.000000
vt 0.000000 1.000000
s 1
usemtl none
f 76/97/55 79/98/55 77/99/55 74/100/55
f 75/97/56 76/98/56 74/99/56 73/100/56
f 80/97/57 75/98/57 73/99/57 78/100/57
f 79/97/58 80/98/58 78/99/58 77/100/58
f 78/101/59 73/102/59 74/103/59 77/104/59
f 79/101/60 76/102/60 75/103/60 80/104/60
o cube.010
v 0.687500 2.187500 2.312500
v 0.687500 2.187500 1.812500
v 0.687500 2.125000 2.312500
v 0.687500 2.125000 1.812500
v 0.625000 2.187500 1.812500
v 0.625000 2.187500 2.312500
v 0.625000 2.125000 1.812500
v 0.625000 2.125000 2.312500
vn -0.0000 -0.0000 -1.0000
vn 1.0000 -0.0000 -0.0000
vn -0.0000 -0.0000 1.0000
vn -1.0000 -0.0000 -0.0000
vn -0.0000 1.0000 -0.0000
vn -0.0000 -1.0000 -0.0000
vt 0.000000 0.875000
vt 0.062500 0.875000
vt 0.062500 0.937500
vt 0.000000 0.937500
vt 0.500000 0.875000
vt 0.500000 0.937500
vt 0.125000 0.875000
vt 0.125000 0.937500
vt 0.062500 0.500000
vt 0.125000 0.500000
vt 0.125000 1.000000
vt 0.062500 1.000000
s 1
usemtl none
f 84/105/61 87/106/61 85/107/61 82/108/61
f 83/105/62 84/109/62 82/110/62 81/108/62
f 88/106/63 83/111/63 81/112/63 86/107/63
f 87/105/64 88/109/64 86/110/64 85/108/64
f 86/113/65 81/114/65 82/115/65 85/116/65
f 87/113/66 84/114/66 83/115/66 88/116/66
o cube.011
v 1.250000 1.875000 1.875000
v 1.250000 1.875000 1.750000
v 1.250000 0.000000 1.875000
v 1.250000 0.000000 1.750000
v 1.125000 1.875000 1.750000
v 1.125000 1.875000 1.875000
v 1.125000 0.000000 1.750000
v 1.125000 0.000000 1.875000
vn -0.0000 -0.0000 -1.0000
vn 1.0000 -0.0000 -0.0000
vn -0.0000 -0.0000 1.0000
vn -1.0000 -0.0000 -0.0000
vn -0.0000 1.0000 -0.0000
vn -0.0000 -1.0000 -0.0000
vt 0.000000 0.000000
vt 0.125000 0.000000
vt 0.125000 1.000000
vt 0.000000 1.000000
vt 0.000000 0.875000
vt 0.125000 0.875000
s 1
usemtl none
f 92/117/67 95/118/67 93/119/67 90/120/67
f 91/117/68 92/118/68 90/119/68 89/120/68
f 96/117/69 91/118/69 89/119/69 94/120/69
f 95/117/70 96/118/70 94/119/70 93/120/70
f 94/121/71 89/122/71 90/119/71 93/120/71
f 95/121/72 92/122/72 91/119/72 96/120/72
o cube.012
v 0.750000 1.875000 1.875000
v 0.750000 1.875000 1.750000
v 0.750000 0.000000 1.875000
v 0.750000 0.000000 1.750000
v 0.625000 1.875000 1.750000
v 0.625000 1.875000 1.875000
v 0.625000 0.000000 1.750000
v 0.625000 0.000000 1.875000
vn -0.0000 -0.0000 -1.0000
vn 1.0000 -0.0000 -0.0000
vn -0.0000 -0.0000 1.0000
vn -1.0000 -0.0000 -0.0000
vn -0.0000 1.0000 -0.0000
vn -0.0000 -1.0000 -0.0000
vt 0.000000 0.000000
vt 0.125000 0.000000
vt 0.125000 1.000000
vt 0.000000 1.000000
vt 0.000000 0.875000
vt 0.125000 0.875000
s 1
usemtl none
f 100/123/73 103/124/73 101/125/73 98/126/73
f 99/123/74 100/124/74 98/125/74 97/126/74
f 104/123/75 99/124/75 97/125/75 102/126/75
f 103/123/76 104/124/76 102/125/76 101/126/76
f 102/127/77 97/128/77 98/125/77 101/126/77
f 103/127/78 100/128/78 99/125/78 104/126/78
o cube.013
v 1.375000 1.625000 1.500000
v 1.375000 1.625000 1.437500
v 1.375000 1.562500 1.500000
v 1.375000 1.562500 1.437500
v 1.000000 1.625000 1.437500
v 1.000000 1.625000 1.500000
v 1.000000 1.562500 1.437500
v 1.000000 1.562500 1.500000
vn -0.0000 -0.0000 -1.0000
vn 1.0000 -0.0000 -0.0000
vn -0.0000 -0.0000 1.0000
vn -1.0000 -0.0000 -0.0000
vn -0.0000 1.0000 -0.0000
vn -0.0000 -1.0000 -0.0000
vt 0.000000 0.875000
vt 0.375000 0.875000
vt 0.375000 0.937500
vt 0.000000 0.937500
vt 0.437500 0.875000
vt 0.437500 0.937500
vt 0.062500 0.875000
vt 0.062500 0.937500
vt 0.375000 1.000000
vt 0.000000 1.000000
vt 0.000000 0.562500
vt 0.375000 0.562500
vt 0.375000 0.625000
vt 0.000000 0.625000
s 1
usemtl none
f 108/129/79 111/130/79 109/131/79 106/132/79
f 107/130/80 108/133/80 106/134/80 105/131/80
f 112/129/81 107/130/81 105/131/81 110/132/81
f 111/129/82 112/135/82 110/136/82 109/132/82
f 110/132/83 105/131/83 106/137/83 109/138/83
f 111/139/84 108/140/84 107/141/84 112/142/84
o cube.014
v 1.375000 1.625000 1.062500
v 1.375000 1.625000 1.000000
v 1.375000 1.562500 1.062500
v 1.375000 1.562500 1.000000
v 1.000000 1.625000 1.000000
v 1.000000 1.625000 1.062500
v 1.000000 1.562500 1.000000
v 1.000000 1.562500 1.062500
vn -0.0000 -0.0000 -1.0000
vn 1.0000 -0.0000 -0.0000
vn -0.0000 -0.0000 1.0000
vn -1.0000 -0.0000 -0.0000
vn -0.0000 1.0000 -0.0000
vn -0.0000 -1.0000 -0.0000
vt 0.000000 0.875000
vt 0.375000 0.875000
vt 0.375000 0.937500
vt 0.000000 0.937500
vt 0.437500 0.875000
vt 0.437500 0.937500
vt 0.062500 0.875000
vt 0.062500 0.937500
vt 0.375000 1.000000
vt 0.000000 1.000000
vt 0.000000 0.562500
vt 0.375000 0.562500
vt 0.375000 0.625000
vt 0.000000 0.625000
s 1
usemtl none
f 116/143/85 119/144/85 117/145/85 114/146/85
f 115/144/86 116/147/86 114/148/86 113/145/86
f 120/143/87 115/144/87 113/145/87 118/146/87
f 119/143/88 120/149/88 118/150/88 117/146/88
f 118/146/89 113/145/89 114/151/89 117/152/89
f 119/153/90 116/154/90 115/155/90 120/156/90
o cube.015
v 1.437500 1.625000 1.437500
v 1.437500 1.625000 1.062500
v 1.437500 1.562500 1.437500
v 1.437500 1.562500 1.062500
v 1.375000 1.625000 1.062500
v 1.375000 1.625000 1.437500
v 1.375000 1.562500 1.062500
v 1.375000 1.562500 1.437500
vn -0.0000 -0.0000 -1.0000
vn 1.0000 -0.0000 -0.0000
vn -0.0000 -0.0000 1.0000
vn -1.0000 -0.0000 -0.0000
vn -0.0000 1.0000 -0.0000
vn -0.0000 -1.0000 -0.0000
vt 0.000000 0.875000
vt 0.062500 0.875000
vt 0.062500 0.937500
vt 0.000000 0.937500
vt 0.437500 0.875000
vt 0.437500 0.937500
vt 0.125000 0.875000
vt 0.125000 0.937500
vt 0.375000 0.875000
vt 0.375000 0.937500
vt 0.062500 0.625000
vt 0.125000 0.625000
vt 0.125000 1.000000
vt 0.062500 1.000000
vt 0.062500 0.562500
vt 0.125000 0.562500
s 1
usemtl none
f 124/157/91 127/158/91 125/159/91 122/160/91
f 123/158/92 124/161/92 122/162/92 121/159/92
f 128/158/93 123/163/93 121/164/93 126/159/93
f 127/157/94 128/165/94 126/166/94 125/160/94
f 126/167/95 121/168/95 122/169/95 125/170/95
f 127/171/96 124/172/96 123/164/96 128/159/96
o cube.016
v 1.000000 1.625000 1.437500
v 1.000000 1.625000 1.062500
v 1.000000 1.562500 1.437500
v 1.000000 1.562500 1.062500
v 0.937500 1.625000 1.062500
v 0.937500 1.625000 1.437500
v 0.937500 1.562500 1.062500
v 0.937500 1.562500 1.437500
vn -0.0000 -0.0000 -1.0000
vn 1.0000 -0.0000 -0.0000
vn -0.0000 -0.0000 1.0000
vn -1.0000 -0.0000 -0.0000
vn -0.0000 1.0000 -0.0000
vn -0.0000 -1.0000 -0.0000
vt 0.000000 0.875000
vt 0.062500 0.875000
vt 0.062500 0.937500
vt 0.000000 0.937500
vt 0.437500 0.875000
vt 0.437500 0.937500
vt 0.125000 0.875000
vt 0.125000 0.937500
vt 0.375000 0.875000
vt 0.375000 0.937500
vt 0.062500 0.625000
vt 0.125000 0.625000
vt 0.125000 1.000000
vt 0.062500 1.000000
vt 0.062500 0.562500
vt 0.125000 0.562500
s 1
usemtl none
f 132/173/97 135/174/97 133/175/97 130/176/97
f 131/174/98 132/177/98 130/178/98 129/175/98
f 136/174/99 131/179/99 129/180/99 134/175/99
f 135/173/100 136/181/100 134/182/100 133/176/100
f 134/183/101 129/184/101 130/185/101 133/186/101
f 135/187/102 132/188/102 131/180/102 136/175/102
o cube.017
v 1.500000 1.625000 1.062500
v 1.500000 1.625000 0.937500
v 1.500000 0.000000 1.062500
v 1.500000 0.000000 0.937500
v 1.375000 1.625000 0.937500
v 1.375000 1.625000 1.062500
v 1.375000 0.000000 0.937500
v 1.375000 0.000000 1.062500
vn -0.0000 -0.0000 -1.0000
vn 1.0000 -0.0000 -0.0000
vn -0.0000 -0.0000 1.0000
vn -1.0000 -0.0000 -0.0000
vn -0.0000 1.0000 -0.0000
vn -0.0000 -1.0000 -0.0000
vt 0.000000 0.000000
vt 0.125000 0.000000
vt 0.125000 1.000000
vt 0.000000 1.000000
vt 0.000000 0.875000
vt 0.125000 0.875000
s 1
usemtl none
f 140/189/103 143/190/103 141/191/103 138/192/103
f 139/189/104 140/190/104 138/191/104 137/192/104
f 144/189/105 139/190/105 137/191/105 142/192/105
f 143/189/106 144/190/106 142/191/106 141/192/106
f 142/193/107 137/194/107 138/191/107 141/192/107
f 143/193/108 140/194/108 139/191/108 144/192/108
o cube.018
v 1.500000 1.625000 1.562500
v 1.500000 1.625000 1.437500
v 1.500000 0.000000 1.562500
v 1.500000 0.000000 1.437500
v 1.375000 1.625000 1.437500
v 1.375000 1.625000 1.562500
v 1.375000 0.000000 1.437500
v 1.375000 0.000000 1.562500
vn -0.0000 -0.0000 -1.0000
vn 1.0000 -0.0000 -0.0000
vn -0.0000 -0.0000 1.0000
vn -1.0000 -0.0000 -0.0000
vn -0.0000 1.0000 -0.0000
vn -0.0000 -1.0000 -0.0000
vt 0.000000 0.000000
vt 0.125000 0.000000
vt 0.125000 1.000000
vt 0.000000 1.000000
vt 0.000000 0.875000
vt 0.125000 0.875000
s 1
usemtl none
f 148/195/109 151/196/109 149/197/109 146/198/109
f 147/195/110 148/196/110 146/197/110 145/198/110
f 152/195/111 147/196/111 145/197/111 150/198/111
f 151/195/112 152/196/112 150/197/112 149/198/112
f 150/199/113 145/200/113 146/197/113 149/198/113
f 151/199/114 148/200/114 147/197/114 152/198/114
o cube.019
v 1.281250 2.562500 2.437500
v 1.281250 2.562500 1.687500
v 1.281250 2.187500 2.437500
v 1.281250 2.187500 1.687500
v 0.593750 2.562500 1.687500
v 0.593750 2.562500 2.437500
v 0.593750 2.187500 1.687500
v 0.593750 2.187500 2.437500
vn -0.0000 -0.0000 -1.0000
vn 1.0000 -0.0000 -0.0000
vn -0.0000 -0.0000 1.0000
vn -1.0000 -0.0000 -0.0000
vn -0.0000 1.0000 -0.0000
vn -0.0000 -1.0000 -0.0000
vt 0.000000 0.312500
vt 0.343750 0.312500
vt 0.343750 0.500000
vt 0.000000 0.500000
vt 0.000000 0.812500
vt 0.375000 0.812500
vt 0.375000 1.000000
vt 0.000000 1.000000
vt 0.000000 0.625000
vt 0.375000 0.625000
vt 0.000000 0.125000
vt 0.343750 0.125000
s 1
usemtl m_9aff7a64-e232-f064-76ec-80f4cac3d982
f 156/201/115 159/202/115 157/203/115 154/204/115
f 155/205/116 156/206/116 154/207/116 153/208/116
f 160/201/117 155/202/117 153/203/117 158/204/117
f 159/205/118 160/206/118 158/207/118 157/208/118
f 158/209/119 153/210/119 154/207/119 157/208/119
f 159/211/120 156/212/120 155/203/120 160/204/120
o cube.020
v 1.000000 2.917308 1.642185
v 1.000000 2.882603 1.538462
v 1.000000 2.754315 1.696721
v 1.000000 2.719610 1.592998
v 0.843750 2.882603 1.538462
v 0.843750 2.917308 1.642185
v 0.843750 2.719610 1.592998
v 0.843750 2.754315 1.696721
vn -0.0000 -0.3173 -0.9483
vn 1.0000 -0.0000 -0.0000
vn -0.0000 0.3173 0.9483
vn -1.0000 -0.0000 -0.0000
vn -0.0000 0.9483 -0.3173
vn -0.0000 -0.9483 0.3173
vt 0.000000 0.453125
vt 0.156250 0.453125
vt 0.156250 0.625000
vt 0.000000 0.625000
vt 0.890625 0.453125
vt 1.000000 0.453125
vt 1.000000 0.625000
vt 0.890625 0.625000
vt 0.031250 0.453125
vt 0.187500 0.453125
vt 0.187500 0.625000
vt 0.031250 0.625000
vt 0.109375 0.453125
vt 0.109375 0.625000
vt 0.031250 0.890625
vt 0.187500 0.890625
vt 0.187500 1.000000
vt 0.031250 1.000000
vt 0.031250 0.000000
vt 0.187500 0.000000
vt 0.187500 0.109375
vt 0.031250 0.109375
s 1
usemtl none
f 164/213/121 167/214/121 165/215/121 162/216/121
f 163/217/122 164/218/122 162/219/122 161/220/122
f 168/221/123 163/222/123 161/223/123 166/224/123
f 167/213/124 168/225/124 166/226/124 165/216/124
f 166/227/125 161/228/125 162/229/125 165/230/125
f 167/231/126 164/232/126 163/233/126 168/234/126
o cube.021
v 1.312500 2.312500 1.375000
v 1.312500 2.312500 1.125000
v 1.312500 2.246875 1.375000
v 1.312500 2.246875 1.125000
v 1.062500 2.312500 1.125000
v 1.062500 2.312500 1.375000
v 1.062500 2.246875 1.125000
v 1.062500 2.246875 1.375000
vn -0.0000 -0.0000 -1.0000
vn 1.0000 -0.0000 -0.0000
vn -0.0000 -0.0000 1.0000
vn -1.0000 -0.0000 -0.0000
vn -0.0000 1.0000 -0.0000
vn -0.0000 -1.0000 -0.0000
vt 0.000000 0.625000
vt 0.125000 0.625000
vt 0.125000 0.656250
vt 0.000000 0.656250
vt 0.093750 0.625000
vt 0.218750 0.625000
vt 0.218750 0.656250
vt 0.093750 0.656250
vt 0.250000 0.625000
vt 0.375000 0.625000
vt 0.375000 0.656250
vt 0.250000 0.656250
vt 0.062500 0.968750
vt 0.187500 0.968750
vt 0.187500 1.000000
vt 0.062500 1.000000
vt 0.343750 0.375000
vt 0.468750 0.375000
vt 0.468750 0.500000
vt 0.343750 0.500000
vt 0.000000 0.531250
vt 0.093750 0.531250
s 1
usemtl m_9aff7a64-e232-f064-76ec-80f4cac3d982
f 172/235/127 175/236/127 173/237/127 170/238/127
f 171/239/128 172/240/128 170/241/128 169/242/128
f 176/243/129 171/244/129 169/245/129 174/246/129
f 175/247/130 176/248/130 174/249/130 173/250/130
f 174/251/131 169/252/131 170/253/131 173/254/131
f 175/255/132 172/256/132 171/239/132 176/235/132
o cube.022
v 1.234375 2.796875 1.296875
v 1.234375 2.796875 1.203125
v 1.234375 2.750000 1.296875
v 1.234375 2.750000 1.203125
v 1.140625 2.796875 1.203125
v 1.140625 2.796875 1.296875
v 1.140625 2.750000 1.203125
v 1.140625 2.750000 1.296875
vn -0.0000 -0.0000 -1.0000
vn 1.0000 -0.0000 -0.0000
vn -0.0000 -0.0000 1.0000
vn -1.0000 -0.0000 -0.0000
vn -0.0000 1.0000 -0.0000
vn -0.0000 -1.0000 -0.0000
vt 0.000000 0.593750
vt 0.062500 0.593750
vt 0.062500 0.625000
vt 0.000000 0.625000
vt 0.031250 0.531250
vt 0.093750 0.531250
vt 0.093750 0.562500
vt 0.031250 0.562500
vt 0.031250 0.593750
vt 0.093750 0.593750
vt 0.093750 0.625000
vt 0.031250 0.625000
vt 0.312500 0.343750
vt 0.375000 0.343750
vt 0.375000 0.406250
vt 0.312500 0.406250
vt 0.312500 0.437500
vt 0.375000 0.437500
vt 0.375000 0.500000
vt 0.312500 0.500000
s 1
usemtl m_9aff7a64-e232-f064-76ec-80f4cac3d982
f 180/257/133 183/258/133 181/259/133 178/260/133
f 179/257/134 180/258/134 178/259/134 177/260/134
f 184/261/135 179/262/135 177/263/135 182/264/135
f 183/265/136 184/266/136 182/267/136 181/268/136
f 182/269/137 177/270/137 178/271/137 181/272/137
f 183/273/138 180/274/138 179/275/138 184/276/138
o cube.023
v 1.234375 2.046875 1.296875
v 1.234375 2.046875 1.203125
v 1.234375 2.000000 1.296875
v 1.234375 2.000000 1.203125
v 1.140625 2.046875 1.203125
v 1.140625 2.046875 1.296875
v 1.140625 2.000000 1.203125
v 1.140625 2.000000 1.296875
vn -0.0000 -0.0000 -1.0000
vn 1.0000 -0.0000 -0.0000
vn -0.0000 -0.0000 1.0000
vn -1.0000 -0.0000 -0.0000
vn -0.0000 1.0000 -0.0000
vn -0.0000 -1.0000 -0.0000
vt 0.062500 0.687500
vt 0.125000 0.687500
vt 0.125000 0.718750
vt 0.062500 0.718750
vt 0.031250 0.687500
vt 0.093750 0.687500
vt 0.093750 0.718750
vt 0.031250 0.718750
vt 0.156250 0.687500
vt 0.156250 0.718750
vt 0.031250 0.843750
vt 0.093750 0.843750
vt 0.093750 0.906250
vt 0.031250 0.906250
vt 0.093750 0.968750
vt 0.031250 0.968750
s 1
usemtl m_9aff7a64-e232-f064-76ec-80f4cac3d982
f 188/277/139 191/278/139 189/279/139 186/280/139
f 187/281/140 188/282/140 186/283/140 185/284/140
f 192/281/141 187/282/141 185/283/141 190/284/141
f 191/282/142 192/285/142 190/286/142 189/283/142
f 190/287/143 185/288/143 186/289/143 189/290/143
f 191/290/144 188/289/144 187/291/144 192/292/144
o cube.024
v 1.234375 2.234375 1.296875
v 1.234375 2.234375 1.203125
v 1.234375 2.062500 1.296875
v 1.234375 2.062500 1.203125
v 1.140625 2.234375 1.203125
v 1.140625 2.234375 1.296875
v 1.140625 2.062500 1.203125
v 1.140625 2.062500 1.296875
vn -0.0000 -0.0000 -1.0000
vn 1.0000 -0.0000 -0.0000
vn -0.0000 -0.0000 1.0000
vn -1.0000 -0.0000 -0.0000
vn -0.0000 1.0000 -0.0000
vn -0.0000 -1.0000 -0.0000
vt 0.312500 0.406250
vt 0.375000 0.406250
vt 0.375000 0.500000
vt 0.312500 0.500000
vt 0.031250 0.843750
vt 0.093750 0.843750
vt 0.093750 0.906250
vt 0.031250 0.906250
vt 0.093750 0.968750
vt 0.031250 0.968750
s 1
usemtl m_9aff7a64-e232-f064-76ec-80f4cac3d982
f 196/293/145 199/294/145 197/295/145 194/296/145
f 195/293/146 196/294/146 194/295/146 193/296/146
f 200/293/147 195/294/147 193/295/147 198/296/147
f 199/293/148 200/294/148 198/295/148 197/296/148
f 198/297/149 193/298/149 194/299/149 197/300/149
f 199/300/150 196/299/150 195/301/150 200/302/150
o cube.025
v 1.281250 2.250000 1.343750
v 1.281250 2.250000 1.156250
v 1.281250 2.184375 1.343750
v 1.281250 2.184375 1.156250
v 1.093750 2.250000 1.156250
v 1.093750 2.250000 1.343750
v 1.093750 2.184375 1.156250
v 1.093750 2.184375 1.343750
vn -0.0000 -0.0000 -1.0000
vn 1.0000 -0.0000 -0.0000
vn -0.0000 -0.0000 1.0000
vn -1.0000 -0.0000 -0.0000
vn -0.0000 1.0000 -0.0000
vn -0.0000 -1.0000 -0.0000
vt 0.000000 0.593750
vt 0.093750 0.593750
vt 0.093750 0.625000
vt 0.000000 0.625000
vt 0.000000 0.531250
vt 0.093750 0.531250
vt 0.093750 0.562500
vt 0.000000 0.562500
s 1
usemtl m_9aff7a64-e232-f064-76ec-80f4cac3d982
f 204/303/151 207/304/151 205/305/151 202/306/151
f 203/303/152 204/304/152 202/305/152 201/306/152
f 208/303/153 203/304/153 201/305/153 206/306/153
f 207/307/154 208/308/154 206/309/154 205/310/154
f 206/307/155 201/308/155 202/305/155 205/306/155
f 207/307/156 204/308/156 203/305/156 208/306/156
o cube.026
v 1.343750 2.750000 1.406250
v 1.343750 2.750000 1.093750
v 1.343750 2.307812 1.406250
v 1.343750 2.307812 1.093750
v 1.031250 2.750000 1.093750
v 1.031250 2.750000 1.406250
v 1.031250 2.307812 1.093750
v 1.031250 2.307812 1.406250
vn -0.0000 -0.0000 -1.0000
vn 1.0000 -0.0000 -0.0000
vn -0.0000 -0.0000 1.0000
vn -1.0000 -0.0000 -0.0000
vn -0.0000 1.0000 -0.0000
vn -0.0000 -1.0000 -0.0000
vt 0.218750 0.625000
vt 0.375000 0.625000
vt 0.375000 0.843750
vt 0.218750 0.843750
vt 0.343750 0.312500
vt 0.531250 0.312500
vt 0.531250 0.500000
vt 0.343750 0.500000
s 1
usemtl m_9aff7a64-e232-f064-76ec-80f4cac3d982
f 212/311/157 215/312/157 213/313/157 210/314/157
f 211/311/158 212/312/158 210/313/158 209/314/158
f 216/311/159 211/312/159 209/313/159 214/314/159
f 215/311/160 216/312/160 214/313/160 213/314/160
f 214/315/161 209/316/161 210/317/161 213/318/161
f 215/315/162 212/316/162 211/317/162 216/318/162
o cube.027
v 1.343750 1.625000 1.406250
v 1.343750 1.625000 1.093750
v 1.343750 1.437500 1.406250
v 1.343750 1.437500 1.093750
v 1.031250 1.625000 1.093750
v 1.031250 1.625000 1.406250
v 1.031250 1.437500 1.093750
v 1.031250 1.437500 1.406250
vn -0.0000 -0.0000 -1.0000
vn 1.0000 -0.0000 -0.0000
vn -0.0000 -0.0000 1.0000
vn -1.0000 -0.0000 -0.0000
vn -0.0000 1.0000 -0.0000
vn -0.0000 -1.0000 -0.0000
vt 0.062500 0.250000
vt 0.218750 0.250000
vt 0.218750 0.343750
vt 0.062500 0.343750
vt 0.031250 0.250000
vt 0.187500 0.250000
vt 0.187500 0.343750
vt 0.031250 0.343750
vt 0.093750 0.250000
vt 0.250000 0.250000
vt 0.250000 0.343750
vt 0.093750 0.343750
vt 0.187500 0.406250
vt 0.031250 0.406250
vt 0.343750 0.343750
vt 0.500000 0.343750
vt 0.500000 0.500000
vt 0.343750 0.500000
s 1
usemtl m_9aff7a64-e232-f064-76ec-80f4cac3d982
f 220/319/163 223/320/163 221/321/163 218/322/163
f 219/323/164 220/324/164 218/325/164 217/326/164
f 224/323/165 219/324/165 217/325/165 222/326/165
f 223/327/166 224/328/166 222/329/166 221/330/166
f 222/323/167 217/324/167 218/331/167 221/332/167
f 223/333/168 220/334/168 219/335/168 224/336/168
o cube.028
v 1.406250 2.000000 1.468750
v 1.406250 2.000000 1.031250
v 1.406250 1.625000 1.468750
v 1.406250 1.625000 1.031250
v 0.968750 2.000000 1.031250
v 0.968750 2.000000 1.468750
v 0.968750 1.625000 1.031250
v 0.968750 1.625000 1.468750
vn -0.0000 -0.0000 -1.0000
vn 1.0000 -0.0000 -0.0000
vn -0.0000 -0.0000 1.0000
vn -1.0000 -0.0000 -0.0000
vn -0.0000 1.0000 -0.0000
vn -0.0000 -1.0000 -0.0000
vt 0.312500 0.312500
vt 0.531250 0.312500
vt 0.531250 0.500000
vt 0.312500 0.500000
vt 0.156250 0.625000
vt 0.375000 0.625000
vt 0.375000 0.812500
vt 0.156250 0.812500
vt 0.000000 0.625000
vt 0.218750 0.625000
vt 0.218750 0.843750
vt 0.000000 0.843750
s 1
usemtl m_9aff7a64-e232-f064-76ec-80f4cac3d982
f 228/337/169 231/338/169 229/339/169 226/340/169
f 227/337/170 228/338/170 226/339/170 225/340/170
f 232/337/171 227/338/171 225/339/171 230/340/171
f 231/341/172 232/342/172 230/343/172 229/344/172
f 230/345/173 225/346/173 226/347/173 229/348/173
f 231/345/174 228/346/174 227/347/174 232/348/174
o cube.029
v 1.000000 1.625000 1.062500
v 1.000000 1.625000 0.937500
v 1.000000 0.000000 1.062500
v 1.000000 0.000000 0.937500
v 0.875000 1.625000 0.937500
v 0.875000 1.625000 1.062500
v 0.875000 0.000000 0.937500
v 0.875000 0.000000 1.062500
vn -0.0000 -0.0000 -1.0000
vn 1.0000 -0.0000 -0.0000
vn -0.0000 -0.0000 1.0000
vn -1.0000 -0.0000 -0.0000
vn -0.0000 1.0000 -0.0000
vn -0.0000 -1.0000 -0.0000
vt 0.000000 0.000000
vt 0.125000 0.000000
vt 0.125000 1.000000
vt 0.000000 1.000000
vt 0.000000 0.875000
vt 0.125000 0.875000
s 1
usemtl none
f 236/349/175 239/350/175 237/351/175 234/352/175
f 235/349/176 236/350/176 234/351/176 233/352/176
f 240/349/177 235/350/177 233/351/177 238/352/177
f 239/349/178 240/350/178 238/351/178 237/352/178
f 238/353/179 233/354/179 234/351/179 237/352/179
f 239/353/180 236/354/180 235/351/180 240/352/180
o cube.030
v 1.046875 2.937500 2.218750
v 1.046875 2.937500 1.906250
v 1.046875 2.750000 2.218750
v 1.046875 2.750000 1.906250
v 0.828125 2.937500 1.906250
v 0.828125 2.937500 2.218750
v 0.828125 2.750000 1.906250
v 0.828125 2.750000 2.218750
vn -0.0000 -0.0000 -1.0000
vn 1.0000 -0.0000 -0.0000
vn -0.0000 -0.0000 1.0000
vn -1.0000 -0.0000 -0.0000
vn -0.0000 1.0000 -0.0000
vn -0.0000 -1.0000 -0.0000
vt 0.375000 0.906250
vt 0.468750 0.906250
vt 0.468750 1.000000
vt 0.375000 1.000000
vt 0.531250 0.906250
vt 0.531250 1.000000
vt 0.500000 0.906250
vt 0.500000 1.000000
vt 0.375000 0.843750
vt 0.468750 0.843750
s 1
usemtl m_9aff7a64-e232-f064-76ec-80f4cac3d982
f 244/355/181 247/356/181 245/357/181 242/358/181
f 243/355/182 244/359/182 242/360/182 241/358/182
f 248/355/183 243/361/183 241/362/183 246/358/183
f 247/355/184 248/359/184 246/360/184 245/358/184
f 246/363/185 241/364/185 242/357/185 245/358/185
f 247/363/186 244/364/186 243/357/186 248/358/186
o cube.031
v 1.031250 2.750000 2.156250
v 1.031250 2.750000 1.968750
v 1.031250 2.562500 2.156250
v 1.031250 2.562500 1.968750
v 0.843750 2.750000 1.968750
v 0.843750 2.750000 2.156250
v 0.843750 2.562500 1.968750
v 0.843750 2.562500 2.156250
vn -0.0000 -0.0000 -1.0000
vn 1.0000 -0.0000 -0.0000
vn -0.0000 -0.0000 1.0000
vn -1.0000 -0.0000 -0.0000
vn -0.0000 1.0000 -0.0000
vn -0.0000 -1.0000 -0.0000
vt 0.000000 0.531250
vt 0.093750 0.531250
vt 0.093750 0.625000
vt 0.000000 0.625000
vt 0.562500 1.000000
s 1
usemtl m_9aff7a64-e232-f064-76ec-80f4cac3d982
f 252/365/187 255/366/187 253/367/187 250/368/187
f 251/365/188 252/366/188 250/367/188 249/368/188
f 256/365/189 251/366/189 249/367/189 254/368/189
f 255/365/190 256/366/190 254/367/190 253/368/190
usemtl none
f 254/369/191 249/369/191 250/369/191 253/369/191
f 255/369/192 252/369/192 251/369/192 256/369/192
o cube.032
v 1.250000 2.093750 1.312500
v 1.250000 2.093750 1.187500
v 1.250000 2.031250 1.312500
v 1.250000 2.031250 1.187500
v 1.125000 2.093750 1.187500
v 1.125000 2.093750 1.312500
v 1.125000 2.031250 1.187500
v 1.125000 2.031250 1.312500
vn -0.0000 -0.0000 -1.0000
vn 1.0000 -0.0000 -0.0000
vn -0.0000 -0.0000 1.0000
vn -1.0000 -0.0000 -0.0000
vn -0.0000 1.0000 -0.0000
vn -0.0000 -1.0000 -0.0000
vt 0.406250 0.843750
vt 0.468750 0.843750
vt 0.468750 0.875000
vt 0.406250 0.875000
vt 0.375000 0.843750
vt 0.437500 0.843750
vt 0.437500 0.875000
vt 0.375000 0.875000
vt 0.500000 0.843750
vt 0.500000 0.875000
vt 0.437500 0.937500
vt 0.375000 0.937500
vt 0.437500 1.000000
vt 0.375000 1.000000
s 1
usemtl m_9aff7a64-e232-f064-76ec-80f4cac3d982
f 260/370/193 263/371/193 261/372/193 258/373/193
f 259/374/194 260/375/194 258/376/194 257/377/194
f 264/374/195 259/375/195 257/376/195 262/377/195
f 263/375/196 264/378/196 262/379/196 261/376/196
f 262/377/197 257/376/197 258/380/197 261/381/197
f 263/381/198 260/380/198 259/382/198 264/383/198
o cube.033
v 1.250000 2.843750 1.312500
v 1.250000 2.843750 1.187500
v 1.250000 2.781250 1.312500
v 1.250000 2.781250 1.187500
v 1.125000 2.843750 1.187500
v 1.125000 2.843750 1.312500
v 1.125000 2.781250 1.187500
v 1.125000 2.781250 1.312500
vn -0.0000 -0.0000 -1.0000
vn 1.0000 -0.0000 -0.0000
vn -0.0000 -0.0000 1.0000
vn -1.0000 -0.0000 -0.0000
vn -0.0000 1.0000 -0.0000
vn -0.0000 -1.0000 -0.0000
vt 0.468750 0.875000
vt 0.531250 0.875000
vt 0.531250 0.906250
vt 0.468750 0.906250
vt 0.468750 0.937500
vt 0.531250 0.937500
vt 0.531250 0.968750
vt 0.468750 0.968750
vt 0.531250 1.000000
vt 0.468750 1.000000
vt 0.375000 0.937500
vt 0.437500 0.937500
vt 0.437500 1.000000
vt 0.375000 1.000000
vt 0.406250 0.937500
vt 0.406250 1.000000
s 1
usemtl m_9aff7a64-e232-f064-76ec-80f4cac3d982
f 268/384/199 271/385/199 269/386/199 266/387/199
f 267/388/200 268/389/200 266/390/200 265/391/200
f 272/388/201 267/389/201 265/390/201 270/391/201
f 271/391/202 272/390/202 270/392/202 269/393/202
f 270/394/203 265/395/203 266/396/203 269/397/203
f 271/398/204 268/388/204 267/393/204 272/399/204
o cube.034
v 1.000000 1.625000 1.562500
v 1.000000 1.625000 1.437500
v 1.000000 0.000000 1.562500
v 1.000000 0.000000 1.437500
v 0.875000 1.625000 1.437500
v 0.875000 1.625000 1.562500
v 0.875000 0.000000 1.437500
v 0.875000 0.000000 1.562500
vn -0.0000 -0.0000 -1.0000
vn 1.0000 -0.0000 -0.0000
vn -0.0000 -0.0000 1.0000
vn -1.0000 -0.0000 -0.0000
vn -0.0000 1.0000 -0.0000
vn -0.0000 -1.0000 -0.0000
vt 0.000000 0.000000
vt 0.125000 0.000000
vt 0.125000 1.000000
vt 0.000000 1.000000
vt 0.000000 0.875000
vt 0.125000 0.875000
s 1
usemtl none
f 276/400/205 279/401/205 277/402/205 274/403/205
f 275/400/206 276/401/206 274/402/206 273/403/206
f 280/400/207 275/401/207 273/402/207 278/403/207
f 279/400/208 280/401/208 278/402/208 277/403/208
f 278/404/209 273/405/209 274/402/209 277/403/209
f 279/404/210 276/405/210 275/402/210 280/403/210
o cube.035
v 0.750000 1.875000 2.250000
v 0.750000 1.875000 1.875000
v 0.750000 1.812500 2.250000
v 0.750000 1.812500 1.875000
v 0.687500 1.875000 1.875000
v 0.687500 1.875000 2.250000
v 0.687500 1.812500 1.875000
v 0.687500 1.812500 2.250000
vn -0.0000 -0.0000 -1.0000
vn 1.0000 -0.0000 -0.0000
vn -0.0000 -0.0000 1.0000
vn -1.0000 -0.0000 -0.0000
vn -0.0000 1.0000 -0.0000
vn -0.0000 -1.0000 -0.0000
vt 0.000000 0.875000
vt 0.062500 0.875000
vt 0.062500 0.937500
vt 0.000000 0.937500
vt 0.437500 0.875000
vt 0.437500 0.937500
vt 0.125000 0.875000
vt 0.125000 0.937500
vt 0.375000 0.875000
vt 0.375000 0.937500
vt 0.062500 0.625000
vt 0.125000 0.625000
vt 0.125000 1.000000
vt 0.062500 1.000000
vt 0.062500 0.562500
vt 0.125000 0.562500
s 1
usemtl none
f 284/406/211 287/407/211 285/408/211 282/409/211
f 283/407/212 284/410/212 282/411/212 281/408/212
f 288/407/213 283/412/213 281/413/213 286/408/213
f 287/406/214 288/414/214 286/415/214 285/409/214
f 286/416/215 281/417/215 282/418/215 285/419/215
f 287/420/216 284/421/216 283/413/216 288/408/216
o cube.036
v 1.250000 2.187500 2.312500
v 1.250000 2.187500 1.812500
v 1.250000 2.125000 2.312500
v 1.250000 2.125000 1.812500
v 1.187500 2.187500 1.812500
v 1.187500 2.187500 2.312500
v 1.187500 2.125000 1.812500
v 1.187500 2.125000 2.312500
vn -0.0000 -0.0000 -1.0000
vn 1.0000 -0.0000 -0.0000
vn -0.0000 -0.0000 1.0000
vn -1.0000 -0.0000 -0.0000
vn -0.0000 1.0000 -0.0000
vn -0.0000 -1.0000 -0.0000
vt 0.000000 0.875000
vt 0.062500 0.875000
vt 0.062500 0.937500
vt 0.000000 0.937500
vt 0.500000 0.875000
vt 0.500000 0.937500
vt 0.125000 0.875000
vt 0.125000 0.937500
vt 0.062500 0.500000
vt 0.125000 0.500000
vt 0.125000 1.000000
vt 0.062500 1.000000
s 1
usemtl none
f 292/422/217 295/423/217 293/424/217 290/425/217
f 291/422/218 292/426/218 290/427/218 289/425/218
f 296/423/219 291/428/219 289/429/219 294/424/219
f 295/422/220 296/426/220 294/427/220 293/425/220
f 294/430/221 289/431/221 290/432/221 293/433/221
f 295/430/222 292/431/222 291/432/222 296/433/222
o cube.037
v 1.187500 2.187500 2.375000
v 1.187500 2.187500 2.312500
v 1.187500 2.125000 2.375000
v 1.187500 2.125000 2.312500
v 0.687500 2.187500 2.312500
v 0.687500 2.187500 2.375000
v 0.687500 2.125000 2.312500
v 0.687500 2.125000 2.375000
vn -0.0000 -0.0000 -1.0000
vn 1.0000 -0.0000 -0.0000
vn -0.0000 -0.0000 1.0000
vn -1.0000 -0.0000 -0.0000
vn -0.0000 1.0000 -0.0000
vn -0.0000 -1.0000 -0.0000
vt 0.000000 0.875000
vt 0.500000 0.875000
vt 0.500000 0.937500
vt 0.000000 0.937500
vt 0.375000 0.875000
vt 0.437500 0.875000
vt 0.437500 0.937500
vt 0.375000 0.937500
vt 0.062500 0.875000
vt 0.062500 0.937500
vt 0.500000 1.000000
vt 0.000000 1.000000
vt 0.000000 0.562500
vt 0.500000 0.562500
vt 0.500000 0.625000
vt 0.000000 0.625000
s 1
usemtl none
f 300/434/223 303/435/223 301/436/223 298/437/223
f 299/438/224 300/439/224 298/440/224 297/441/224
f 304/434/225 299/435/225 297/436/225 302/437/225
f 303/434/226 304/442/226 302/443/226 301/437/226
f 302/437/227 297/436/227 298/444/227 301/445/227
f 303/446/228 300/447/228 299/448/228 304/449/228
o cube.039
v 0.312500 0.500000 1.125000
v 0.312500 0.500000 1.062500
v 0.312500 0.437500 1.125000
v 0.312500 0.437500 1.062500
v -0.125000 0.500000 1.062500
v -0.125000 0.500000 1.125000
v -0.125000 0.437500 1.062500
v -0.125000 0.437500 1.125000
vn -0.0000 -0.0000 -1.0000
vn 1.0000 -0.0000 -0.0000
vn -0.0000 -0.0000 1.0000
vn -1.0000 -0.0000 -0.0000
vn -0.0000 1.0000 -0.0000
vn -0.0000 -1.0000 -0.0000
vt 0.000000 0.875000
vt 0.437500 0.875000
vt 0.437500 0.937500
vt 0.000000 0.937500
vt 0.062500 0.875000
vt 0.062500 0.937500
vt 0.375000 0.875000
vt 0.375000 0.937500
vt 0.000000 0.562500
vt 0.437500 0.562500
vt 0.437500 0.625000
vt 0.000000 0.625000
vt 0.437500 1.000000
vt 0.000000 1.000000
s 1
usemtl none
f 308/450/229 311/451/229 309/452/229 306/453/229
f 307/450/230 308/454/230 306/455/230 305/453/230
f 312/450/231 307/451/231 305/452/231 310/453/231
f 311/456/232 312/451/232 310/452/232 309/457/232
f 310/458/233 305/459/233 306/460/233 309/461/233
f 311/453/234 308/452/234 307/462/234 312/463/234
o cube.040
v 0.312500 0.500000 1.750000
v 0.312500 0.500000 1.687500
v 0.312500 0.437500 1.750000
v 0.312500 0.437500 1.687500
v -0.125000 0.500000 1.687500
v -0.125000 0.500000 1.750000
v -0.125000 0.437500 1.687500
v -0.125000 0.437500 1.750000
vn -0.0000 -0.0000 -1.0000
vn 1.0000 -0.0000 -0.0000
vn -0.0000 -0.0000 1.0000
vn -1.0000 -0.0000 -0.0000
vn -0.0000 1.0000 -0.0000
vn -0.0000 -1.0000 -0.0000
vt 0.000000 0.875000
vt 0.437500 0.875000
vt 0.437500 0.937500
vt 0.000000 0.937500
vt 0.062500 0.875000
vt 0.062500 0.937500
vt 0.375000 0.875000
vt 0.375000 0.937500
vt 0.000000 0.562500
vt 0.437500 0.562500
vt 0.437500 0.625000
vt 0.000000 0.625000
vt 0.437500 1.000000
vt 0.000000 1.000000
s 1
usemtl none
f 316/464/235 319/465/235 317/466/235 314/467/235
f 315/464/236 316/468/236 314/469/236 313/467/236
f 320/464/237 315/465/237 313/466/237 318/467/237
f 319/470/238 320/465/238 318/466/238 317/471/238
f 318/472/239 313/473/239 314/474/239 317/475/239
f 319/467/240 316/466/240 315/476/240 320/477/240
o cube.041
v 0.437500 0.500000 1.625000
v 0.437500 0.500000 1.187500
v 0.437500 0.437500 1.625000
v 0.437500 0.437500 1.187500
v 0.375000 0.500000 1.187500
v 0.375000 0.500000 1.625000
v 0.375000 0.437500 1.187500
v 0.375000 0.437500 1.625000
vn -0.0000 -0.0000 -1.0000
vn 1.0000 -0.0000 -0.0000
vn -0.0000 -0.0000 1.0000
vn -1.0000 -0.0000 -0.0000
vn -0.0000 1.0000 -0.0000
vn -0.0000 -1.0000 -0.0000
vt 0.000000 0.875000
vt 0.062500 0.875000
vt 0.062500 0.937500
vt 0.000000 0.937500
vt 0.437500 0.875000
vt 0.437500 0.937500
vt 0.125000 0.875000
vt 0.125000 0.937500
vt 0.062500 0.562500
vt 0.125000 0.562500
vt 0.125000 1.000000
vt 0.062500 1.000000
s 1
usemtl none
f 324/478/241 327/479/241 325/480/241 322/481/241
f 323/478/242 324/482/242 322/483/242 321/481/242
f 328/479/243 323/484/243 321/485/243 326/480/243
f 327/478/244 328/482/244 326/483/244 325/481/244
f 326/486/245 321/487/245 322/488/245 325/489/245
f 327/486/246 324/487/246 323/488/246 328/489/246
o cube.042
v -0.187500 0.500000 1.625000
v -0.187500 0.500000 1.187500
v -0.187500 0.437500 1.625000
v -0.187500 0.437500 1.187500
v -0.250000 0.500000 1.187500
v -0.250000 0.500000 1.625000
v -0.250000 0.437500 1.187500
v -0.250000 0.437500 1.625000
vn -0.0000 -0.0000 -1.0000
vn 1.0000 -0.0000 -0.0000
vn -0.0000 -0.0000 1.0000
vn -1.0000 -0.0000 -0.0000
vn -0.0000 1.0000 -0.0000
vn -0.0000 -1.0000 -0.0000
vt 0.000000 0.875000
vt 0.062500 0.875000
vt 0.062500 0.937500
vt 0.000000 0.937500
vt 0.437500 0.875000
vt 0.437500 0.937500
vt 0.125000 0.875000
vt 0.125000 0.937500
vt 0.062500 0.562500
vt 0.125000 0.562500
vt 0.125000 1.000000
vt 0.062500 1.000000
s 1
usemtl none
f 332/490/247 335/491/247 333/492/247 330/493/247
f 331/490/248 332/494/248 330/495/248 329/493/248
f 336/491/249 331/496/249 329/497/249 334/492/249
f 335/490/250 336/494/250 334/495/250 333/493/250
f 334/498/251 329/499/251 330/500/251 333/501/251
f 335/498/252 332/499/252 331/500/252 336/501/252
o cube.043
v 0.437500 0.500000 1.750000
v 0.437500 0.500000 1.625000
v 0.437500 0.000000 1.750000
v 0.437500 0.000000 1.625000
v 0.312500 0.500000 1.625000
v 0.312500 0.500000 1.750000
v 0.312500 0.000000 1.625000
v 0.312500 0.000000 1.750000
vn -0.0000 -0.0000 -1.0000
vn 1.0000 -0.0000 -0.0000
vn -0.0000 -0.0000 1.0000
vn -1.0000 -0.0000 -0.0000
vn -0.0000 1.0000 -0.0000
vn -0.0000 -1.0000 -0.0000
vt 0.000000 0.500000
vt 0.125000 0.500000
vt 0.125000 1.000000
vt 0.000000 1.000000
vt 0.000000 0.875000
vt 0.125000 0.875000
s 1
usemtl none
f 340/502/253 343/503/253 341/504/253 338/505/253
f 339/502/254 340/503/254 338/504/254 337/505/254
f 344/502/255 339/503/255 337/504/255 342/505/255
f 343/502/256 344/503/256 342/504/256 341/505/256
f 342/506/257 337/507/257 338/504/257 341/505/257
f 343/506/258 340/507/258 339/504/258 344/505/258
o cube.044
v 0.437500 0.500000 1.187500
v 0.437500 0.500000 1.062500
v 0.437500 0.000000 1.187500
v 0.437500 0.000000 1.062500
v 0.312500 0.500000 1.062500
v 0.312500 0.500000 1.187500
v 0.312500 0.000000 1.062500
v 0.312500 0.000000 1.187500
vn -0.0000 -0.0000 -1.0000
vn 1.0000 -0.0000 -0.0000
vn -0.0000 -0.0000 1.0000
vn -1.0000 -0.0000 -0.0000
vn -0.0000 1.0000 -0.0000
vn -0.0000 -1.0000 -0.0000
vt 0.000000 0.500000
vt 0.125000 0.500000
vt 0.125000 1.000000
vt 0.000000 1.000000
vt 0.000000 0.875000
vt 0.125000 0.875000
s 1
usemtl none
f 348/508/259 351/509/259 349/510/259 346/511/259
f 347/508/260 348/509/260 346/510/260 345/511/260
f 352/508/261 347/509/261 345/510/261 350/511/261
f 351/508/262 352/509/262 350/510/262 349/511/262
f 350/512/263 345/513/263 346/510/263 349/511/263
f 351/512/264 348/513/264 347/510/264 352/511/264
o cube.045
v -0.125000 0.500000 1.750000
v -0.125000 0.500000 1.625000
v -0.125000 0.000000 1.750000
v -0.125000 0.000000 1.625000
v -0.250000 0.500000 1.625000
v -0.250000 0.500000 1.750000
v -0.250000 0.000000 1.625000
v -0.250000 0.000000 1.750000
vn -0.0000 -0.0000 -1.0000
vn 1.0000 -0.0000 -0.0000
vn -0.0000 -0.0000 1.0000
vn -1.0000 -0.0000 -0.0000
vn -0.0000 1.0000 -0.0000
vn -0.0000 -1.0000 -0.0000
vt 0.000000 0.500000
vt 0.125000 0.500000
vt 0.125000 1.000000
vt 0.000000 1.000000
vt 0.000000 0.875000
vt 0.125000 0.875000
s 1
usemtl none
f 356/514/265 359/515/265 357/516/265 354/517/265
f 355/514/266 356/515/266 354/516/266 353/517/266
f 360/514/267 355/515/267 353/516/267 358/517/267
f 359/514/268 360/515/268 358/516/268 357/517/268
f 358/518/269 353/519/269 354/516/269 357/517/269
f 359/518/270 356/519/270 355/516/270 360/517/270
o cube.046
v -0.125000 0.500000 1.187500
v -0.125000 0.500000 1.062500
v -0.125000 0.000000 1.187500
v -0.125000 0.000000 1.062500
v -0.250000 0.500000 1.062500
v -0.250000 0.500000 1.187500
v -0.250000 0.000000 1.062500
v -0.250000 0.000000 1.187500
vn -0.0000 -0.0000 -1.0000
vn 1.0000 -0.0000 -0.0000
vn -0.0000 -0.0000 1.0000
vn -1.0000 -0.0000 -0.0000
vn -0.0000 1.0000 -0.0000
vn -0.0000 -1.0000 -0.0000
vt 0.000000 0.500000
vt 0.125000 0.500000
vt 0.125000 1.000000
vt 0.000000 1.000000
vt 0.000000 0.875000
vt 0.125000 0.875000
s 1
usemtl none
f 364/520/271 367/521/271 365/522/271 362/523/271
f 363/520/272 364/521/272 362/522/272 361/523/272
f 368/520/273 363/521/273 361/522/273 366/523/273
f 367/520/274 368/521/274 366/522/274 365/523/274
f 366/524/275 361/525/275 362/522/275 365/523/275
f 367/524/276 364/525/276 363/522/276 368/523/276
o cube.048
v 0.156250 0.625000 1.187500
v 0.156250 0.625000 0.750000
v 0.156250 0.500000 1.187500
v 0.156250 0.500000 0.750000
v 0.031250 0.625000 0.750000
v 0.031250 0.625000 1.187500
v 0.031250 0.500000 0.750000
v 0.031250 0.500000 1.187500
vn -0.0000 -0.0000 -1.0000
vn 1.0000 -0.0000 -0.0000
vn -0.0000 -0.0000 1.0000
vn -1.0000 -0.0000 -0.0000
vn -0.0000 1.0000 -0.0000
vn -0.0000 -1.0000 -0.0000
vt 0.000000 0.500000
vt 0.125000 0.500000
vt 0.125000 0.625000
vt 0.000000 0.625000
vt 0.062500 0.500000
vt 0.500000 0.500000
vt 0.500000 0.625000
vt 0.062500 0.625000
vt 0.125000 0.937500
vt 0.000000 0.937500
s 1
usemtl none
f 372/526/277 375/527/277 373/528/277 370/529/277
f 371/530/278 372/531/278 370/532/278 369/533/278
f 376/526/279 371/527/279 369/528/279 374/529/279
f 375/530/280 376/531/280 374/532/280 373/533/280
f 374/526/281 369/527/281 370/534/281 373/535/281
f 375/526/282 372/527/282 371/534/282 376/535/282
o cube.057
v 0.156250 1.453125 1.468750
v 0.156250 1.453125 1.343750
v 0.156250 1.390625 1.468750
v 0.156250 1.390625 1.343750
v 0.031250 1.453125 1.343750
v 0.031250 1.453125 1.468750
v 0.031250 1.390625 1.343750
v 0.031250 1.390625 1.468750
vn -0.0000 -0.0000 -1.0000
vn 1.0000 -0.0000 -0.0000
vn -0.0000 -0.0000 1.0000
vn -1.0000 -0.0000 -0.0000
vn -0.0000 1.0000 -0.0000
vn -0.0000 -1.0000 -0.0000
vt 0.250000 0.250000
vt 0.375000 0.250000
vt 0.375000 0.312500
vt 0.250000 0.312500
vt 0.187500 0.250000
vt 0.312500 0.250000
vt 0.312500 0.312500
vt 0.187500 0.312500
vt 0.437500 0.250000
vt 0.437500 0.312500
vt 0.187500 0.562500
vt 0.312500 0.562500
vt 0.312500 0.687500
vt 0.187500 0.687500
vt 0.312500 0.812500
vt 0.187500 0.812500
s 1
usemtl none
f 380/536/283 383/537/283 381/538/283 378/539/283
f 379/540/284 380/541/284 378/542/284 377/543/284
f 384/540/285 379/541/285 377/542/285 382/543/285
f 383/541/286 384/544/286 382/545/286 381/542/286
f 382/546/287 377/547/287 378/548/287 381/549/287
f 383/549/288 380/548/288 379/550/288 384/551/288
o cube.058
v 1.046875 2.642541 1.310281
v 1.046875 2.568648 1.229641
v 1.046875 2.550381 1.394730
v 1.046875 2.476489 1.314090
v 0.984375 2.568648 1.229641
v 0.984375 2.642541 1.310281
v 0.984375 2.476489 1.314090
v 0.984375 2.550381 1.394730
vn -0.0000 -0.6756 -0.7373
vn 1.0000 -0.0000 -0.0000
vn -0.0000 0.6756 0.7373
vn -1.0000 -0.0000 -0.0000
vn -0.0000 0.7373 -0.6756
vn -0.0000 -0.7373 0.6756
vt 0.000000 0.500000
vt 0.062500 0.500000
vt 0.062500 0.625000
vt 0.000000 0.625000
vt 0.890625 0.500000
vt 1.000000 0.500000
vt 1.000000 0.625000
vt 0.890625 0.625000
vt 0.125000 0.500000
vt 0.125000 0.625000
vt 0.109375 0.500000
vt 0.109375 0.625000
vt 0.062500 0.890625
vt 0.125000 0.890625
vt 0.125000 1.000000
vt 0.062500 1.000000
vt 0.062500 0.000000
vt 0.125000 0.000000
vt 0.125000 0.109375
vt 0.062500 0.109375
s 1
usemtl none
f 388/552/289 391/553/289 389/554/289 386/555/289
f 387/556/290 388/557/290 386/558/290 385/559/290
f 392/553/291 387/560/291 385/561/291 390/554/291
f 391/552/292 392/562/292 390/563/292 389/555/292
f 390/564/293 385/565/293 386/566/293 389/567/293
f 391/568/294 388/569/294 387/570/294 392/571/294
o cube.059
v 0.984375 2.895888 1.586760
v 0.984375 2.568648 1.229641
v 0.984375 2.803728 1.671209
v 0.984375 2.476489 1.314090
v 0.859375 2.568648 1.229641
v 0.859375 2.895888 1.586760
v 0.859375 2.476489 1.314090
v 0.859375 2.803728 1.671209
vn -0.0000 -0.6756 -0.7373
vn 1.0000 -0.0000 -0.0000
vn -0.0000 0.6756 0.7373
vn -1.0000 -0.0000 -0.0000
vn -0.0000 0.7373 -0.6756
vn -0.0000 -0.7373 0.6756
vt 0.000000 0.500000
vt 0.125000 0.500000
vt 0.125000 0.625000
vt 0.000000 0.625000
vt 0.515625 0.500000
vt 1.000000 0.500000
vt 1.000000 0.625000
vt 0.515625 0.625000
vt 0.484375 0.500000
vt 0.484375 0.625000
vt 0.000000 0.515625
vt 0.125000 0.515625
vt 0.125000 1.000000
vt 0.000000 1.000000
vt 0.000000 0.000000
vt 0.125000 0.000000
vt 0.125000 0.484375
vt 0.000000 0.484375
s 1
usemtl none
f 396/572/295 399/573/295 397/574/295 394/575/295
f 395/576/296 396/577/296 394/578/296 393/579/296
f 400/572/297 395/573/297 393/574/297 398/575/297
f 399/572/298 400/580/298 398/581/298 397/575/298
f 398/582/299 393/583/299 394/584/299 397/585/299
f 399/586/300 396/587/300 395/588/300 400/589/300
o cube.060
v 0.984375 2.904688 1.953125
v 0.984375 2.904688 1.593750
v 0.984375 2.779688 1.953125
v 0.984375 2.779688 1.593750
v 0.859375 2.904688 1.593750
v 0.859375 2.904688 1.953125
v 0.859375 2.779688 1.593750
v 0.859375 2.779688 1.953125
vn -0.0000 -0.0000 -1.0000
vn 1.0000 -0.0000 -0.0000
vn -0.0000 -0.0000 1.0000
vn -1.0000 -0.0000 -0.0000
vn -0.0000 1.0000 -0.0000
vn -0.0000 -1.0000 -0.0000
vt 0.000000 0.500000
vt 0.125000 0.500000
vt 0.125000 0.625000
vt 0.000000 0.625000
vt 0.640625 0.500000
vt 1.000000 0.500000
vt 1.000000 0.625000
vt 0.640625 0.625000
vt 0.359375 0.500000
vt 0.359375 0.625000
vt 0.000000 0.640625
vt 0.125000 0.640625
vt 0.125000 1.000000
vt 0.000000 1.000000
vt 0.000000 0.000000
vt 0.125000 0.000000
vt 0.125000 0.359375
vt 0.000000 0.359375
s 1
usemtl none
f 404/590/301 407/591/301 405/592/301 402/593/301
f 403/594/302 404/595/302 402/596/302 401/597/302
f 408/590/303 403/591/303 401/592/303 406/593/303
f 407/590/304 408/598/304 406/599/304 405/593/304
f 406/600/305 401/601/305 402/602/305 405/603/305
f 407/604/306 404/605/306 403/606/306 408/607/306
o cube.061
v 0.359375 1.687500 0.015625
v 0.359375 1.687500 -0.140625
v 0.359375 1.562500 0.015625
v 0.359375 1.562500 -0.140625
v 0.203125 1.687500 -0.140625
v 0.203125 1.687500 0.015625
v 0.203125 1.562500 -0.140625
v 0.203125 1.562500 0.015625
vn -0.0000 -0.0000 -1.0000
vn 1.0000 -0.0000 -0.0000
vn -0.0000 -0.0000 1.0000
vn -1.0000 -0.0000 -0.0000
vn -0.0000 1.0000 -0.0000
vn -0.0000 -1.0000 -0.0000
vt 0.796875 0.437500
vt 0.953125 0.437500
vt 0.953125 0.562500
vt 0.796875 0.562500
vt 0.843750 0.437500
vt 1.000000 0.437500
vt 1.000000 0.562500
vt 0.843750 0.562500
vt 0.046875 0.437500
vt 0.203125 0.437500
vt 0.203125 0.562500
vt 0.046875 0.562500
vt 0.000000 0.437500
vt 0.156250 0.437500
vt 0.156250 0.562500
vt 0.000000 0.562500
vt 0.046875 0.843750
vt 0.203125 0.843750
vt 0.203125 1.000000
vt 0.046875 1.000000
vt 0.046875 0.000000
vt 0.203125 0.000000
vt 0.203125 0.156250
vt 0.046875 0.156250
s 1
usemtl none
f 412/608/307 415/609/307 413/610/307 410/611/307
f 411/612/308 412/613/308 410/614/308 409/615/308
f 416/616/309 411/617/309 409/618/309 414/619/309
f 415/620/310 416/621/310 414/622/310 413/623/310
f 414/624/311 409/625/311 410/626/311 413/627/311
f 415/628/312 412/629/312 411/630/312 416/631/312
o cube.062
v 1.265625 1.890625 1.062500
v 1.265625 1.890625 0.937500
v 1.265625 1.734375 1.062500
v 1.265625 1.734375 0.937500
v 1.109375 1.890625 0.937500
v 1.109375 1.890625 1.062500
v 1.109375 1.734375 0.937500
v 1.109375 1.734375 1.062500
vn -0.0000 -0.0000 -1.0000
vn 1.0000 -0.0000 -0.0000
vn -0.0000 -0.0000 1.0000
vn -1.0000 -0.0000 -0.0000
vn -0.0000 1.0000 -0.0000
vn -0.0000 -1.0000 -0.0000
vt 0.000000 0.484375
vt 0.156250 0.484375
vt 0.156250 0.640625
vt 0.000000 0.640625
vt 0.125000 0.484375
vt 0.125000 0.640625
vt 0.875000 0.484375
vt 1.000000 0.484375
vt 1.000000 0.640625
vt 0.875000 0.640625
vt 0.000000 0.000000
vt 0.156250 0.000000
vt 0.156250 0.125000
vt 0.000000 0.125000
vt 0.000000 0.875000
vt 0.156250 0.875000
vt 0.156250 1.000000
vt 0.000000 1.000000
s 1
usemtl none
f 420/632/313 423/633/313 421/634/313 418/635/313
f 419/632/314 420/636/314 418/637/314 417/635/314
f 424/632/315 419/633/315 417/634/315 422/635/315
f 423/638/316 424/639/316 422/640/316 421/641/316
f 422/642/317 417/643/317 418/644/317 421/645/317
f 423/646/318 420/647/318 419/648/318 424/649/318
o cube.063
v 1.250000 1.875000 1.062500
v 1.250000 1.875000 -0.125000
v 1.250000 1.750000 1.062500
v 1.250000 1.750000 -0.125000
v 1.125000 1.875000 -0.125000
v 1.125000 1.875000 1.062500
v 1.125000 1.750000 -0.125000
v 1.125000 1.750000 1.062500
vn -0.0000 -0.0000 -1.0000
vn 1.0000 -0.0000 -0.0000
vn -0.0000 -0.0000 1.0000
vn -1.0000 -0.0000 -0.0000
vn -0.0000 1.0000 -0.0000
vn -0.0000 -1.0000 -0.0000
vt 0.000000 0.500000
vt 0.125000 0.500000
vt 0.125000 0.625000
vt 0.000000 0.625000
vt 1.000000 0.500000
vt 1.000000 0.625000
vt 0.000000 0.000000
vt 0.125000 0.000000
vt 0.125000 1.000000
vt 0.000000 1.000000
s 1
usemtl none
f 428/650/319 431/651/319 429/652/319 426/653/319
f 427/650/320 428/654/320 426/655/320 425/653/320
f 432/650/321 427/651/321 425/652/321 430/653/321
f 431/650/322 432/654/322 430/655/322 429/653/322
f 430/656/323 425/657/323 426/658/323 429/659/323
f 431/656/324 428/657/324 427/658/324 432/659/324
o cube.064
v 0.343750 1.750000 -0.000000
v 0.343750 1.750000 -0.125000
v 0.343750 1.562500 -0.000000
v 0.343750 1.562500 -0.125000
v 0.218750 1.750000 -0.125000
v 0.218750 1.750000 -0.000000
v 0.218750 1.562500 -0.125000
v 0.218750 1.562500 -0.000000
vn -0.0000 -0.0000 -1.0000
vn 1.0000 -0.0000 -0.0000
vn -0.0000 -0.0000 1.0000
vn -1.0000 -0.0000 -0.0000
vn -0.0000 1.0000 -0.0000
vn -0.0000 -1.0000 -0.0000
vt 0.812500 0.437500
vt 0.937500 0.437500
vt 0.937500 0.625000
vt 0.812500 0.625000
vt 0.875000 0.437500
vt 1.000000 0.437500
vt 1.000000 0.625000
vt 0.875000 0.625000
vt 0.062500 0.437500
vt 0.187500 0.437500
vt 0.187500 0.625000
vt 0.062500 0.625000
vt 0.000000 0.437500
vt 0.125000 0.437500
vt 0.125000 0.625000
vt 0.000000 0.625000
vt 0.062500 0.875000
vt 0.187500 0.875000
vt 0.187500 1.000000
vt 0.062500 1.000000
vt 0.062500 0.000000
vt 0.187500 0.000000
vt 0.187500 0.125000
vt 0.062500 0.125000
s 1
usemtl none
f 436/660/325 439/661/325 437/662/325 434/663/325
f 435/664/326 436/665/326 434/666/326 433/667/326
f 440/668/327 435/669/327 433/670/327 438/671/327
f 439/672/328 440/673/328 438/674/328 437/675/328
f 438/676/329 433/677/329 434/678/329 437/679/329
f 439/680/330 436/681/330 435/682/330 440/683/330
o cube.065
v 1.125000 1.875000 -0.000000
v 1.125000 1.875000 -0.125000
v 1.125000 1.750000 -0.000000
v 1.125000 1.750000 -0.125000
v 0.218750 1.875000 -0.125000
v 0.218750 1.875000 -0.000000
v 0.218750 1.750000 -0.125000
v 0.218750 1.750000 -0.000000
vn -0.0000 -0.0000 -1.0000
vn 1.0000 -0.0000 -0.0000
vn -0.0000 -0.0000 1.0000
vn -1.0000 -0.0000 -0.0000
vn -0.0000 1.0000 -0.0000
vn -0.0000 -1.0000 -0.0000
vt 0.031250 0.500000
vt 0.937500 0.500000
vt 0.937500 0.625000
vt 0.031250 0.625000
vt 0.875000 0.500000
vt 1.000000 0.500000
vt 1.000000 0.625000
vt 0.875000 0.625000
vt 0.062500 0.500000
vt 0.968750 0.500000
vt 0.968750 0.625000
vt 0.062500 0.625000
vt 0.000000 0.500000
vt 0.125000 0.500000
vt 0.125000 0.625000
vt 0.000000 0.625000
vt 0.062500 0.875000
vt 0.968750 0.875000
vt 0.968750 1.000000
vt 0.062500 1.000000
vt 0.062500 0.000000
vt 0.968750 0.000000
vt 0.968750 0.125000
vt 0.062500 0.125000
s 1
usemtl none
f 444/684/331 447/685/331 445/686/331 442/687/331
f 443/688/332 444/689/332 442/690/332 441/691/332
f 448/692/333 443/693/333 441/694/333 446/695/333
f 447/696/334 448/697/334 446/698/334 445/699/334
f 446/700/335 441/701/335 442/702/335 445/703/335
f 447/704/336 444/705/336 443/706/336 448/707/336
o cube.066
v 0.140625 1.406250 1.453125
v 0.140625 1.406250 1.359375
v 0.140625 1.359375 1.453125
v 0.140625 1.359375 1.359375
v 0.046875 1.406250 1.359375
v 0.046875 1.406250 1.453125
v 0.046875 1.359375 1.359375
v 0.046875 1.359375 1.453125
vn -0.0000 -0.0000 -1.0000
vn 1.0000 -0.0000 -0.0000
vn -0.0000 -0.0000 1.0000
vn -1.0000 -0.0000 -0.0000
vn -0.0000 1.0000 -0.0000
vn -0.0000 -1.0000 -0.0000
vt 0.265625 0.250000
vt 0.359375 0.250000
vt 0.359375 0.296875
vt 0.265625 0.296875
vt 0.203125 0.250000
vt 0.296875 0.250000
vt 0.296875 0.296875
vt 0.203125 0.296875
vt 0.328125 0.250000
vt 0.421875 0.250000
vt 0.421875 0.296875
vt 0.328125 0.296875
vt 0.203125 0.578125
vt 0.296875 0.578125
vt 0.296875 0.671875
vt 0.203125 0.671875
vt 0.203125 0.703125
vt 0.296875 0.703125
vt 0.296875 0.796875
vt 0.203125 0.796875
s 1
usemtl none
f 452/708/337 455/709/337 453/710/337 450/711/337
f 451/712/338 452/713/338 450/714/338 449/715/338
f 456/712/339 451/713/339 449/714/339 454/715/339
f 455/716/340 456/717/340 454/718/340 453/719/340
f 454/720/341 449/721/341 450/722/341 453/723/341
f 455/724/342 452/725/342 451/726/342 456/727/342
o cube.068
v 0.156250 0.984375 1.468750
v 0.156250 0.984375 1.343750
v 0.156250 0.968750 1.468750
v 0.156250 0.968750 1.343750
v 0.031250 0.984375 1.343750
v 0.031250 0.984375 1.468750
v 0.031250 0.968750 1.343750
v 0.031250 0.968750 1.468750
vn -0.0000 -0.0000 -1.0000
vn 1.0000 -0.0000 -0.0000
vn -0.0000 -0.0000 1.0000
vn -1.0000 -0.0000 -0.0000
vn -0.0000 1.0000 -0.0000
vn -0.0000 -1.0000 -0.0000
vt 0.125000 0.437500
vt 0.250000 0.437500
vt 0.250000 0.453125
vt 0.125000 0.453125
vt 0.437500 0.437500
vt 0.562500 0.437500
vt 0.562500 0.453125
vt 0.437500 0.453125
vt 0.312500 0.437500
vt 0.312500 0.453125
vt 0.062500 0.437500
vt 0.187500 0.437500
vt 0.187500 0.453125
vt 0.062500 0.453125
vt 0.312500 0.812500
vt 0.437500 0.812500
vt 0.437500 0.937500
vt 0.312500 0.937500
vt 0.437500 0.562500
vt 0.312500 0.562500
s 1
usemtl none
f 460/728/343 463/729/343 461/730/343 458/731/343
f 459/732/344 460/733/344 458/734/344 457/735/344
f 464/736/345 459/732/345 457/735/345 462/737/345
f 463/738/346 464/739/346 462/740/346 461/741/346
f 462/742/347 457/743/347 458/744/347 461/745/347
f 463/736/348 460/732/348 459/746/348 464/747/348
o cube.069
v 0.281250 1.359375 1.593750
v 0.281250 1.359375 1.218750
v 0.281250 0.984375 1.593750
v 0.281250 0.984375 1.218750
v -0.093750 1.359375 1.218750
v -0.093750 1.359375 1.593750
v -0.093750 0.984375 1.218750
v -0.093750 0.984375 1.593750
vn -0.0000 -0.0000 -1.0000
vn 1.0000 -0.0000 -0.0000
vn -0.0000 -0.0000 1.0000
vn -1.0000 -0.0000 -0.0000
vn -0.0000 1.0000 -0.0000
vn -0.0000 -1.0000 -0.0000
vt 0.343750 0.312500
vt 0.531250 0.312500
vt 0.531250 0.500000
vt 0.343750 0.500000
s 1
usemtl m_9aff7a64-e232-f064-76ec-80f4cac3d982
f 468/748/349 471/749/349 469/750/349 466/751/349
f 467/748/350 468/749/350 466/750/350 465/751/350
f 472/748/351 467/749/351 465/750/351 470/751/351
f 471/748/352 472/749/352 470/750/352 469/751/352
f 470/748/353 465/749/353 466/750/353 469/751/353
f 471/748/354 468/749/354 467/750/354 472/751/354
o cube.070
v 0.343750 0.968750 1.656250
v 0.343750 0.968750 1.156250
v 0.343750 0.406250 1.656250
v 0.343750 0.406250 1.156250
v -0.156250 0.968750 1.156250
v -0.156250 0.968750 1.656250
v -0.156250 0.406250 1.156250
v -0.156250 0.406250 1.656250
vn -0.0000 -0.0000 -1.0000
vn 1.0000 -0.0000 -0.0000
vn -0.0000 -0.0000 1.0000
vn -1.0000 -0.0000 -0.0000
vn -0.0000 1.0000 -0.0000
vn -0.0000 -1.0000 -0.0000
vt 0.000000 0.156250
vt 0.312500 0.156250
vt 0.312500 0.500000
vt 0.000000 0.500000
vt 0.000000 0.187500
vt 0.312500 0.187500
s 1
usemtl m_9aff7a64-e232-f064-76ec-80f4cac3d982
f 476/752/355 479/753/355 477/754/355 474/755/355
f 475/752/356 476/753/356 474/754/356 473/755/356
f 480/752/357 475/753/357 473/754/357 478/755/357
f 479/752/358 480/753/358 478/754/358 477/755/358
f 478/756/359 473/757/359 474/754/359 477/755/359
f 479/756/360 476/757/360 475/754/360 480/755/360
o cube.071
v 0.171875 0.640625 1.187500
v 0.171875 0.640625 1.062500
v 0.171875 0.484375 1.187500
v 0.171875 0.484375 1.062500
v 0.015625 0.640625 1.062500
v 0.015625 0.640625 1.187500
v 0.015625 0.484375 1.062500
v 0.015625 0.484375 1.187500
vn -0.0000 -0.0000 -1.0000
vn 1.0000 -0.0000 -0.0000
vn -0.0000 -0.0000 1.0000
vn -1.0000 -0.0000 -0.0000
vn -0.0000 1.0000 -0.0000
vn -0.0000 -1.0000 -0.0000
vt 0.000000 0.484375
vt 0.156250 0.484375
vt 0.156250 0.640625
vt 0.000000 0.640625
vt 0.062500 0.484375
vt 0.187500 0.484375
vt 0.187500 0.640625
vt 0.062500 0.640625
vt 0.046875 0.484375
vt 0.203125 0.484375
vt 0.203125 0.640625
vt 0.046875 0.640625
vt 0.375000 0.484375
vt 0.500000 0.484375
vt 0.500000 0.640625
vt 0.375000 0.640625
vt 0.046875 0.500000
vt 0.203125 0.500000
vt 0.203125 0.625000
vt 0.046875 0.625000
vt 0.046875 0.812500
vt 0.203125 0.812500
vt 0.203125 0.937500
vt 0.046875 0.937500
s 1
usemtl none
f 484/758/361 487/759/361 485/760/361 482/761/361
f 483/762/362 484/763/362 482/764/362 481/765/362
f 488/766/363 483/767/363 481/768/363 486/769/363
f 487/770/364 488/771/364 486/772/364 485/773/364
f 486/774/365 481/775/365 482/776/365 485/777/365
f 487/778/366 484/779/366 483/780/366 488/781/366
o cube.072
v 0.171875 1.687500 0.390625
v 0.171875 1.687500 0.234375
v 0.171875 1.562500 0.390625
v 0.171875 1.562500 0.234375
v 0.015625 1.687500 0.234375
v 0.015625 1.687500 0.390625
v 0.015625 1.562500 0.234375
v 0.015625 1.562500 0.390625
vn -0.0000 -0.0000 -1.0000
vn 1.0000 -0.0000 -0.0000
vn -0.0000 -0.0000 1.0000
vn -1.0000 -0.0000 -0.0000
vn -0.0000 1.0000 -0.0000
vn -0.0000 -1.0000 -0.0000
vt 0.000000 0.812500
vt 0.156250 0.812500
vt 0.156250 0.937500
vt 0.000000 0.937500
vt 0.046875 0.812500
vt 0.203125 0.812500
vt 0.203125 0.937500
vt 0.046875 0.937500
vt 0.359375 0.812500
vt 0.515625 0.812500
vt 0.515625 0.937500
vt 0.359375 0.937500
vt 0.000000 0.484375
vt 0.156250 0.484375
vt 0.156250 0.640625
vt 0.000000 0.640625
vt 0.000000 0.796875
vt 0.156250 0.796875
vt 0.156250 0.953125
vt 0.000000 0.953125
s 1
usemtl none
f 492/782/367 495/783/367 493/784/367 490/785/367
f 491/786/368 492/787/368 490/788/368 489/789/368
f 496/782/369 491/783/369 489/784/369 494/785/369
f 495/790/370 496/791/370 494/792/370 493/793/370
f 494/794/371 489/795/371 490/796/371 493/797/371
f 495/798/372 492/799/372 491/800/372 496/801/372
o cube.073
v 0.156250 1.750000 0.375000
v 0.156250 1.750000 0.250000
v 0.156250 1.562500 0.375000
v 0.156250 1.562500 0.250000
v 0.031250 1.750000 0.250000
v 0.031250 1.750000 0.375000
v 0.031250 1.562500 0.250000
v 0.031250 1.562500 0.375000
vn -0.0000 -0.0000 -1.0000
vn 1.0000 -0.0000 -0.0000
vn -0.0000 -0.0000 1.0000
vn -1.0000 -0.0000 -0.0000
vn -0.0000 1.0000 -0.0000
vn -0.0000 -1.0000 -0.0000
vt 0.000000 0.812500
vt 0.125000 0.812500
vt 0.125000 1.000000
vt 0.000000 1.000000
vt 0.062500 0.812500
vt 0.187500 0.812500
vt 0.187500 1.000000
vt 0.062500 1.000000
vt 0.375000 0.812500
vt 0.500000 0.812500
vt 0.500000 1.000000
vt 0.375000 1.000000
vt 0.000000 0.500000
vt 0.125000 0.500000
vt 0.125000 0.625000
vt 0.000000 0.625000
vt 0.125000 0.937500
vt 0.000000 0.937500
s 1
usemtl none
f 500/802/373 503/803/373 501/804/373 498/805/373
f 499/806/374 500/807/374 498/808/374 497/809/374
f 504/802/375 499/803/375 497/804/375 502/805/375
f 503/810/376 504/811/376 502/812/376 501/813/376
f 502/814/377 497/815/377 498/816/377 501/817/377
f 503/802/378 500/803/378 499/818/378 504/819/378
o cube.074
v 0.156250 1.875000 0.750000
v 0.156250 1.875000 0.250000
v 0.156250 1.750000 0.750000
v 0.156250 1.750000 0.250000
v 0.031250 1.875000 0.250000
v 0.031250 1.875000 0.750000
v 0.031250 1.750000 0.250000
v 0.031250 1.750000 0.750000
vn -0.0000 -0.0000 -1.0000
vn 1.0000 -0.0000 -0.0000
vn -0.0000 -0.0000 1.0000
vn -1.0000 -0.0000 -0.0000
vn -0.0000 1.0000 -0.0000
vn -0.0000 -1.0000 -0.0000
vt 0.000000 0.500000
vt 0.125000 0.500000
vt 0.125000 0.625000
vt 0.000000 0.625000
vt 0.062500 0.500000
vt 0.562500 0.500000
vt 0.562500 0.625000
vt 0.062500 0.625000
vt 0.500000 0.500000
vt 0.500000 0.625000
vt 0.125000 1.000000
vt 0.000000 1.000000
vt 0.000000 0.437500
vt 0.125000 0.437500
vt 0.125000 0.937500
vt 0.000000 0.937500
s 1
usemtl none
f 508/820/379 511/821/379 509/822/379 506/823/379
f 507/824/380 508/825/380 506/826/380 505/827/380
f 512/820/381 507/821/381 505/822/381 510/823/381
f 511/820/382 512/828/382 510/829/382 509/823/382
f 510/820/383 505/821/383 506/830/383 509/831/383
f 511/832/384 508/833/384 507/834/384 512/835/384
o cube.075
v 0.156250 1.875000 0.875000
v 0.156250 1.875000 0.750000
v 0.156250 0.625000 0.875000
v 0.156250 0.625000 0.750000
v 0.031250 1.875000 0.750000
v 0.031250 1.875000 0.875000
v 0.031250 0.625000 0.750000
v 0.031250 0.625000 0.875000
vn -0.0000 -0.0000 -1.0000
vn 1.0000 -0.0000 -0.0000
vn -0.0000 -0.0000 1.0000
vn -1.0000 -0.0000 -0.0000
vn -0.0000 1.0000 -0.0000
vn -0.0000 -1.0000 -0.0000
vt 0.000000 0.000000
vt 0.125000 0.000000
vt 0.125000 1.000000
vt 0.000000 1.000000
vt 0.062500 0.000000
vt 0.187500 0.000000
vt 0.187500 1.000000
vt 0.062500 1.000000
vt 0.375000 0.000000
vt 0.500000 0.000000
vt 0.500000 1.000000
vt 0.375000 1.000000
vt 0.000000 0.500000
vt 0.125000 0.500000
vt 0.125000 0.625000
vt 0.000000 0.625000
vt 0.000000 0.812500
vt 0.125000 0.812500
vt 0.125000 0.937500
vt 0.000000 0.937500
s 1
usemtl none
f 516/836/385 519/837/385 517/838/385 514/839/385
f 515/840/386 516/841/386 514/842/386 513/843/386
f 520/836/387 515/837/387 513/838/387 518/839/387
f 519/844/388 520/845/388 518/846/388 517/847/388
f 518/848/389 513/849/389 514/850/389 517/851/389
f 519/852/390 516/853/390 515/854/390 520/855/390
