# Blender 5.2.0 LTS
# www.blender.org
mtllib alchemy_machine_core.mtl
o cube.038
v -0.250000 1.312500 -0.437500
v -0.250000 1.312500 -0.687500
v -0.250000 1.187500 -0.437500
v -0.250000 1.187500 -0.687500
v -0.375000 1.312500 -0.687500
v -0.375000 1.312500 -0.437500
v -0.375000 1.187500 -0.687500
v -0.375000 1.187500 -0.437500
vn -0.0000 -0.0000 -1.0000
vn 1.0000 -0.0000 -0.0000
vn -0.0000 -0.0000 1.0000
vn -1.0000 -0.0000 -0.0000
vn -0.0000 1.0000 -0.0000
vn -0.0000 -1.0000 -0.0000
vt 0.000000 0.875000
vt 0.125000 0.875000
vt 0.125000 1.000000
vt 0.000000 1.000000
vt 0.250000 0.875000
vt 0.250000 1.000000
vt 0.000000 0.750000
vt 0.125000 0.750000
s 1
usemtl none
f 4/1/1 7/2/1 5/3/1 2/4/1
f 3/1/2 4/5/2 2/6/2 1/4/2
f 8/1/3 3/2/3 1/3/3 6/4/3
f 7/1/4 8/5/4 6/6/4 5/4/4
f 6/7/5 1/8/5 2/3/5 5/4/5
f 7/7/6 4/8/6 3/3/6 8/4/6
o cube.047
v -0.250000 1.437500 -0.562500
v -0.250000 1.437500 -0.687500
v -0.250000 1.312500 -0.562500
v -0.250000 1.312500 -0.687500
v -0.375000 1.437500 -0.687500
v -0.375000 1.437500 -0.562500
v -0.375000 1.312500 -0.687500
v -0.375000 1.312500 -0.562500
vn -0.0000 -0.0000 -1.0000
vn 1.0000 -0.0000 -0.0000
vn -0.0000 -0.0000 1.0000
vn -1.0000 -0.0000 -0.0000
vn -0.0000 1.0000 -0.0000
vn -0.0000 -1.0000 -0.0000
vt 0.000000 0.875000
vt 0.125000 0.875000
vt 0.125000 1.000000
vt 0.000000 1.000000
vt 0.250000 0.875000
vt 0.250000 1.000000
vt 0.000000 0.750000
vt 0.125000 0.750000
s 1
usemtl none
f 12/9/7 15/10/7 13/11/7 10/12/7
f 11/9/8 12/10/8 10/11/8 9/12/8
f 16/9/9 11/10/9 9/11/9 14/12/9
f 15/10/10 16/13/10 14/14/10 13/11/10
f 14/15/11 9/16/11 10/10/11 13/9/11
f 15/9/12 12/10/12 11/11/12 16/12/12
o cube.049
v -0.218750 1.687500 -0.500000
v -0.218750 1.687500 -0.750000
v -0.218750 1.437500 -0.500000
v -0.218750 1.437500 -0.750000
v -0.406250 1.687500 -0.750000
v -0.406250 1.687500 -0.500000
v -0.406250 1.437500 -0.750000
v -0.406250 1.437500 -0.500000
vn -0.0000 -0.0000 -1.0000
vn 1.0000 -0.0000 -0.0000
vn -0.0000 -0.0000 1.0000
vn -1.0000 -0.0000 -0.0000
vn -0.0000 1.0000 -0.0000
vn -0.0000 -1.0000 -0.0000
vt 0.000000 0.750000
vt 0.187500 0.750000
vt 0.187500 1.000000
vt 0.000000 1.000000
vt 0.250000 0.750000
vt 0.250000 1.000000
vt 0.062500 0.750000
vt 0.062500 1.000000
vt 0.312500 0.750000
vt 0.312500 1.000000
vt 0.062500 0.687500
vt 0.250000 0.687500
vt 0.250000 0.937500
vt 0.062500 0.937500
s 1
usemtl none
f 20/17/13 23/18/13 21/19/13 18/20/13
f 19/17/14 20/21/14 18/22/14 17/20/14
f 24/23/15 19/21/15 17/22/15 22/24/15
f 23/23/16 24/25/16 22/26/16 21/24/16
f 22/27/17 17/28/17 18/29/17 21/30/17
f 23/23/18 20/21/18 19/22/18 24/24/18
o cube.050
v -0.203125 1.281250 0.828125
v -0.203125 1.281250 0.671875
v -0.203125 0.968750 0.828125
v -0.203125 0.968750 0.671875
v -0.359375 1.281250 0.671875
v -0.359375 1.281250 0.828125
v -0.359375 0.968750 0.671875
v -0.359375 0.968750 0.828125
vn -0.0000 -0.0000 -1.0000
vn 1.0000 -0.0000 -0.0000
vn -0.0000 -0.0000 1.0000
vn -1.0000 -0.0000 -0.0000
vn -0.0000 1.0000 -0.0000
vn -0.0000 -1.0000 -0.0000
vt 0.015625 0.437500
vt 0.171875 0.437500
vt 0.171875 0.750000
vt 0.015625 0.750000
vt 0.046875 0.437500
vt 0.203125 0.437500
vt 0.203125 0.750000
vt 0.046875 0.750000
vt 0.015625 0.796875
vt 0.171875 0.796875
vt 0.171875 0.953125
vt 0.015625 0.953125
s 1
usemtl none
f 28/31/19 31/32/19 29/33/19 26/34/19
f 27/35/20 28/36/20 26/37/20 25/38/20
f 32/31/21 27/32/21 25/33/21 30/34/21
f 31/35/22 32/36/22 30/37/22 29/38/22
f 30/39/23 25/40/23 26/41/23 29/42/23
f 31/39/24 28/40/24 27/41/24 32/42/24
o cube.051
v -0.218750 0.968750 0.812500
v -0.218750 0.968750 0.687500
v -0.218750 0.468750 0.812500
v -0.218750 0.468750 0.687500
v -0.343750 0.968750 0.687500
v -0.343750 0.968750 0.812500
v -0.343750 0.468750 0.687500
v -0.343750 0.468750 0.812500
vn -0.0000 -0.0000 -1.0000
vn 1.0000 -0.0000 -0.0000
vn -0.0000 -0.0000 1.0000
vn -1.0000 -0.0000 -0.0000
vn -0.0000 1.0000 -0.0000
vn -0.0000 -1.0000 -0.0000
vt 0.031250 0.437500
vt 0.156250 0.437500
vt 0.156250 0.937500
vt 0.031250 0.937500
vt 0.062500 0.437500
vt 0.187500 0.437500
vt 0.187500 0.937500
vt 0.062500 0.937500
vt 0.000000 0.437500
vt 0.125000 0.437500
vt 0.125000 0.937500
vt 0.000000 0.937500
vt 0.031250 0.875000
vt 0.156250 0.875000
vt 0.156250 1.000000
vt 0.031250 1.000000
vt 0.031250 0.812500
vt 0.156250 0.812500
s 1
usemtl none
f 36/43/25 39/44/25 37/45/25 34/46/25
f 35/47/26 36/48/26 34/49/26 33/50/26
f 40/43/27 35/44/27 33/45/27 38/46/27
f 39/51/28 40/52/28 38/53/28 37/54/28
f 38/55/29 33/56/29 34/57/29 37/58/29
f 39/59/30 36/60/30 35/45/30 40/46/30
o cube.052
v -0.218750 0.593750 0.687500
v -0.218750 0.593750 0.562500
v -0.218750 0.468750 0.687500
v -0.218750 0.468750 0.562500
v -0.343750 0.593750 0.562500
v -0.343750 0.593750 0.687500
v -0.343750 0.468750 0.562500
v -0.343750 0.468750 0.687500
vn -0.0000 -0.0000 -1.0000
vn 1.0000 -0.0000 -0.0000
vn -0.0000 -0.0000 1.0000
vn -1.0000 -0.0000 -0.0000
vn -0.0000 1.0000 -0.0000
vn -0.0000 -1.0000 -0.0000
vt 0.031250 0.843750
vt 0.156250 0.843750
vt 0.156250 0.968750
vt 0.031250 0.968750
vt 0.062500 0.843750
vt 0.187500 0.843750
vt 0.187500 0.968750
vt 0.062500 0.968750
vt 0.000000 0.843750
vt 0.125000 0.843750
vt 0.125000 0.968750
vt 0.000000 0.968750
vt 0.031250 0.875000
vt 0.156250 0.875000
vt 0.156250 1.000000
vt 0.031250 1.000000
vt 0.031250 0.812500
vt 0.156250 0.812500
vt 0.156250 0.937500
vt 0.031250 0.937500
s 1
usemtl none
f 44/61/31 47/62/31 45/63/31 42/64/31
f 43/65/32 44/66/32 42/67/32 41/68/32
f 48/61/33 43/62/33 41/63/33 46/64/33
f 47/69/34 48/70/34 46/71/34 45/72/34
f 46/73/35 41/74/35 42/75/35 45/76/35
f 47/77/36 44/78/36 43/79/36 48/80/36
o cube.053
v -0.187500 0.625000 0.562500
v -0.187500 0.625000 0.500000
v -0.187500 0.437500 0.562500
v -0.187500 0.437500 0.500000
v -0.375000 0.625000 0.500000
v -0.375000 0.625000 0.562500
v -0.375000 0.437500 0.500000
v -0.375000 0.437500 0.562500
vn -0.0000 -0.0000 -1.0000
vn 1.0000 -0.0000 -0.0000
vn -0.0000 -0.0000 1.0000
vn -1.0000 -0.0000 -0.0000
vn -0.0000 1.0000 -0.0000
vn -0.0000 -1.0000 -0.0000
vt 0.000000 0.812500
vt 0.187500 0.812500
vt 0.187500 1.000000
vt 0.000000 1.000000
vt 0.062500 0.812500
vt 0.125000 0.812500
vt 0.125000 1.000000
vt 0.062500 1.000000
vt 0.000000 0.937500
vt 0.187500 0.937500
vt 0.000000 0.875000
vt 0.187500 0.875000
s 1
usemtl none
f 52/81/37 55/82/37 53/83/37 50/84/37
f 51/85/38 52/86/38 50/87/38 49/88/38
f 56/81/39 51/82/39 49/83/39 54/84/39
f 55/81/40 56/85/40 54/88/40 53/84/40
f 54/89/41 49/90/41 50/83/41 53/84/41
f 55/91/42 52/92/42 51/90/42 56/89/42
o cube.054
v -0.437500 1.000000 0.375000
v -0.437500 1.000000 0.187500
v -0.437500 0.937500 0.375000
v -0.437500 0.937500 0.187500
v -0.500000 1.000000 0.187500
v -0.500000 1.000000 0.375000
v -0.500000 0.937500 0.187500
v -0.500000 0.937500 0.375000
vn -0.0000 -0.0000 -1.0000
vn 1.0000 -0.0000 -0.0000
vn -0.0000 -0.0000 1.0000
vn -1.0000 -0.0000 -0.0000
vn -0.0000 1.0000 -0.0000
vn -0.0000 -1.0000 -0.0000
vt 0.062500 0.875000
vt 0.125000 0.875000
vt 0.125000 0.937500
vt 0.062500 0.937500
vt 0.000000 0.875000
vt 0.187500 0.875000
vt 0.187500 0.937500
vt 0.000000 0.937500
vt 0.000000 0.812500
vt 0.062500 0.812500
vt 0.062500 1.000000
vt 0.000000 1.000000
s 1
usemtl none
f 60/93/43 63/94/43 61/95/43 58/96/43
f 59/97/44 60/98/44 58/99/44 57/100/44
f 64/97/45 59/93/45 57/96/45 62/100/45
f 63/97/46 64/98/46 62/99/46 61/100/46
f 62/101/47 57/102/47 58/103/47 61/104/47
f 63/101/48 60/102/48 59/103/48 64/104/48
o cube.055
v 0.437500 1.562500 0.437500
v 0.437500 1.562500 -0.437500
v 0.437500 0.687500 0.437500
v 0.437500 0.687500 -0.437500
v -0.437500 1.562500 -0.437500
v -0.437500 1.562500 0.437500
v -0.437500 0.687500 -0.437500
v -0.437500 0.687500 0.437500
vn -0.0000 -0.0000 -1.0000
vn 1.0000 -0.0000 -0.0000
vn -0.0000 -0.0000 1.0000
vn -1.0000 -0.0000 -0.0000
vn -0.0000 1.0000 -0.0000
vn -0.0000 -1.0000 -0.0000
vt 0.000000 0.062500
vt 0.875000 0.062500
vt 0.875000 0.937500
vt 0.000000 0.937500
vt 0.125000 0.062500
vt 1.000000 0.062500
vt 1.000000 0.937500
vt 0.125000 0.937500
vt 0.125000 0.000000
vt 1.000000 0.000000
vt 1.000000 0.875000
vt 0.125000 0.875000
vt 0.125000 0.125000
vt 1.000000 0.125000
vt 1.000000 1.000000
vt 0.125000 1.000000
s 1
usemtl none
f 68/105/49 71/106/49 69/107/49 66/108/49
f 67/105/50 68/106/50 66/107/50 65/108/50
f 72/109/51 67/110/51 65/111/51 70/112/51
f 71/109/52 72/110/52 70/111/52 69/112/52
f 70/113/53 65/114/53 66/115/53 69/116/53
f 71/117/54 68/118/54 67/119/54 72/120/54
o cube.056
v 0.500000 0.687500 0.500000
v 0.500000 0.687500 -0.500000
v 0.500000 0.125000 0.500000
v 0.500000 0.125000 -0.500000
v -0.500000 0.687500 -0.500000
v -0.500000 0.687500 0.500000
v -0.500000 0.125000 -0.500000
v -0.500000 0.125000 0.500000
vn -0.0000 -0.0000 -1.0000
vn 1.0000 -0.0000 -0.0000
vn -0.0000 -0.0000 1.0000
vn -1.0000 -0.0000 -0.0000
vn -0.0000 1.0000 -0.0000
vn -0.0000 -1.0000 -0.0000
vt 0.000000 0.375000
vt 1.000000 0.375000
vt 1.000000 0.937500
vt 0.000000 0.937500
vt 0.000000 0.000000
vt 1.000000 0.000000
vt 1.000000 1.000000
vt 0.000000 1.000000
s 1
usemtl none
f 76/121/55 79/122/55 77/123/55 74/124/55
f 75/121/56 76/122/56 74/123/56 73/124/56
f 80/121/57 75/122/57 73/123/57 78/124/57
f 79/121/58 80/122/58 78/123/58 77/124/58
f 78/125/59 73/126/59 74/127/59 77/128/59
f 79/125/60 76/126/60 75/127/60 80/128/60
o cube.067
v 0.562500 0.125000 0.562500
v 0.562500 0.125000 -0.562500
v 0.562500 0.000000 0.562500
v 0.562500 -0.000000 -0.562500
v -0.562500 0.125000 -0.562500
v -0.562500 0.125000 0.562500
v -0.562500 -0.000000 -0.562500
v -0.562500 0.000000 0.562500
vn -0.0000 -0.0000 -1.0000
vn 1.0000 -0.0000 -0.0000
vn -0.0000 -0.0000 1.0000
vn -1.0000 -0.0000 -0.0000
vn -0.0000 1.0000 -0.0000
vn -0.0000 -1.0000 -0.0000
vt 0.000000 0.875000
vt 1.000000 0.875000
vt 1.000000 1.000000
vt 0.000000 1.000000
vt 0.000000 0.000000
vt 1.000000 0.000000
s 1
usemtl none
f 84/129/61 87/130/61 85/131/61 82/132/61
f 83/129/62 84/130/62 82/131/62 81/132/62
f 88/129/63 83/130/63 81/131/63 86/132/63
f 87/129/64 88/130/64 86/131/64 85/132/64
f 86/133/65 81/134/65 82/131/65 85/132/65
f 87/133/66 84/134/66 83/131/66 88/132/66
